<?xml version="1.0" encoding="utf-8"?>
<!-- Generator: Adobe Illustrator 25.0.0, SVG Export Plug-In . SVG Version: 6.00 Build 0)  -->
<svg version="1.1" id="Layer_1" xmlns="http://www.w3.org/2000/svg" xmlns:xlink="http://www.w3.org/1999/xlink" x="0px" y="0px"
	 viewBox="0 0 1000 1000" style="enable-background:new 0 0 1000 1000;" xml:space="preserve">
<style type="text/css">
	.st0{fill:#ED1C24;}
	.st1{fill:#213047;}
</style>
<path class="st0" d="M500,20c64.8,0,127.7,12.7,186.8,37.7c57.2,24.2,108.5,58.8,152.6,102.9c44.1,44.1,78.7,95.4,102.9,152.6
	c25,59.2,37.7,122,37.7,186.8s-12.7,127.7-37.7,186.8c-24.2,57.2-58.8,108.5-102.9,152.6c-44.1,44.1-95.4,78.7-152.6,102.9
	c-59.2,25-122,37.7-186.8,37.7s-127.7-12.7-186.8-37.7c-57.2-24.2-108.5-58.8-152.6-102.9C116.5,795.3,81.9,744,57.7,686.8
	C32.7,627.7,20,564.8,20,500s12.7-127.7,37.7-186.8c24.2-57.2,58.8-108.5,102.9-152.6c44.1-44.1,95.4-78.7,152.6-102.9
	C372.3,32.7,435.2,20,500,20 M500,0C223.9,0,0,223.9,0,500s223.9,500,500,500s500-223.9,500-500S776.1,0,500,0L500,0z"/>
<g>
	<path class="st1" d="M719.4,302c-20,0-36.4,13.7-41.5,32.9H576.8H322.1c-5.1-19.2-21.5-32.9-41.5-32.9c-24.1,0-43.6,20.5-43.6,45.6
		v336.7c0,0,0,0,0,0v0.4c0,0.3,0,0.7,0,1c0.7,17.8,8.2,34.5,21.3,46.9c13.1,12.5,30.4,19.4,48.6,19.4h386.2
		c18.2,0,35.5-6.9,48.6-19.4c13.1-12.4,20.6-29.1,21.3-46.9c0-0.3,0-0.7,0-1v-0.4v-1.1V347.6C763,322.5,743.4,302,719.4,302z
		 M273,717.2c-9.1-8.6-14.3-20.2-14.7-32.4c1-12.3,10.7-22,22.3-22c11.7,0,21.1,9.7,21.8,22.6c0.3,5.8,5.2,10.2,11,10.1
		c5.8-0.2,10.4-4.9,10.4-10.7v-0.4V499.7h66.8v142.9c0,5.9,4.8,10.7,10.7,10.7s10.7-4.8,10.7-10.7V445.1c0-5.9-4.8-10.7-10.7-10.7
		s-10.7,4.8-10.7,10.7v33.2h-66.8V356.3h143.6v23.3h-66.1c-5.9,0-10.7,4.8-10.7,10.7c0,5.9,4.8,10.7,10.7,10.7h66.1v33.2
		c0,5.9,4.8,10.7,10.7,10.7c5.9,0,10.7-4.8,10.7-10.7v-77.9h55.4v155h-110c-5.9,0-10.7,4.8-10.7,10.7c0,5.9,4.8,10.7,10.7,10.7h110
		v33.2c0,5.9,4.8,10.7,10.7,10.7s10.7-4.8,10.7-10.7v-121h110.7V599h-77.5c-5.9,0-10.7,4.8-10.7,10.7c0,5.9,4.8,10.7,10.7,10.7h77.5
		v63.9v0.4c0,5.8,4.6,10.5,10.4,10.7c5.8,0.2,10.6-4.2,11-10.1c0.7-12.9,10.1-22.6,21.8-22.6c11.5,0,21.3,9.6,22.3,22
		c-0.4,12.3-5.6,23.8-14.7,32.4c-9.1,8.7-21.2,13.5-33.9,13.5H306.9C294.2,730.7,282.1,725.9,273,717.2z M302.4,647.5
		c-6.5-4-14-6-21.8-6c-8.1,0-15.7,2.3-22.3,6.4V347.6c0-13.4,10-24.3,22.3-24.3c12.2,0,21.8,10.7,21.8,24.3V647.5z M676.2,423.5
		H565.5v-67.2h11.3h99.4V423.5z M741.7,647.8c-6.6-4.1-14.2-6.4-22.3-6.4c-7.8,0-15.2,2.1-21.8,6V347.6c0-13.6,9.6-24.3,21.8-24.3
		c12.3,0,22.3,10.9,22.3,24.3V647.8z"/>
	<path class="st1" d="M620.7,697.8h-121v-77.1c0-5.9-4.8-10.7-10.7-10.7c-5.9,0-10.7,4.8-10.7,10.7v77.1h-99
		c-5.9,0-10.7,4.8-10.7,10.7c0,5.9,4.8,10.7,10.7,10.7h241.4c5.9,0,10.7-4.8,10.7-10.7C631.4,702.6,626.6,697.8,620.7,697.8z"/>
	<path class="st1" d="M335.4,313.2h109.7h109.7h109.7c5.9,0,10.7-4.8,10.7-10.7v-43.9c0-5.9-4.8-10.7-10.7-10.7H554.9H445.1H335.4
		c-5.9,0-10.7,4.8-10.7,10.7v43.9C324.7,308.4,329.5,313.2,335.4,313.2z M346.1,291.8v-22.5h88.4v22.5H346.1z M455.8,291.8v-22.5
		h88.4v22.5H455.8z M565.5,291.8v-22.5h88.4v22.5H565.5z"/>
</g>
</svg>
