<?xml version="1.0" encoding="utf-8"?>
<!-- Generator: Adobe Illustrator 25.0.0, SVG Export Plug-In . SVG Version: 6.00 Build 0)  -->
<svg version="1.1" id="Layer_1" xmlns="http://www.w3.org/2000/svg" xmlns:xlink="http://www.w3.org/1999/xlink" x="0px" y="0px"
	 viewBox="0 0 1000 1000" style="enable-background:new 0 0 1000 1000;" xml:space="preserve">
<style type="text/css">
	.st0{fill:#ED1C24;}
	.st1{fill:#213047;}
</style>
<path class="st0" d="M500,20c64.8,0,127.7,12.7,186.8,37.7c57.2,24.2,108.5,58.8,152.6,102.9c44.1,44.1,78.7,95.4,102.9,152.6
	c25,59.2,37.7,122,37.7,186.8s-12.7,127.7-37.7,186.8c-24.2,57.2-58.8,108.5-102.9,152.6c-44.1,44.1-95.4,78.7-152.6,102.9
	c-59.2,25-122,37.7-186.8,37.7s-127.7-12.7-186.8-37.7c-57.2-24.2-108.5-58.8-152.6-102.9C116.5,795.3,81.9,744,57.7,686.8
	C32.7,627.7,20,564.8,20,500s12.7-127.7,37.7-186.8c24.2-57.2,58.8-108.5,102.9-152.6c44.1-44.1,95.4-78.7,152.6-102.9
	C372.3,32.7,435.2,20,500,20 M500,0C223.9,0,0,223.9,0,500s223.9,500,500,500s500-223.9,500-500S776.1,0,500,0L500,0z"/>
<g>
	<path class="st1" d="M355.2,264.7v156.1c0,6.5,3.5,12.5,9.1,15.7c2.8,1.6,5.9,2.4,9,2.4c3.2,0,6.3-0.8,9.1-2.5l162.8-95v79.3
		c0,6.5,3.5,12.5,9.1,15.7c2.8,1.6,5.9,2.4,9,2.4c3.2,0,6.3-0.8,9.1-2.5l162.8-95v393.8H264.7V264.7H355.2 M595,644.8h63.3
		c10,0,18.1-8.1,18.1-18.1v-63.3c0-10-8.1-18.1-18.1-18.1H595c-10,0-18.1,8.1-18.1,18.1v63.3C576.9,636.7,585,644.8,595,644.8
		 M468.3,644.8h63.3c10,0,18.1-8.1,18.1-18.1v-63.3c0-10-8.1-18.1-18.1-18.1h-63.3c-10,0-18.1,8.1-18.1,18.1v63.3
		C450.2,636.7,458.3,644.8,468.3,644.8 M341.7,644.8H405c10,0,18.1-8.1,18.1-18.1v-63.3c0-10-8.1-18.1-18.1-18.1h-63.3
		c-10,0-18.1,8.1-18.1,18.1v63.3C323.6,636.7,331.7,644.8,341.7,644.8 M373.3,246.7H246.7v506.7h506.7V310l-190,110.8V310
		l-190,110.8V246.7L373.3,246.7z M595,626.7v-63.3h63.3v63.3H595L595,626.7z M468.3,626.7v-63.3h63.3v63.3H468.3L468.3,626.7z
		 M341.7,626.7v-63.3H405v63.3H341.7L341.7,626.7z"/>
	<path class="st1" d="M756.3,756.3H243.7V243.7h132.7v172l190-110.8v110.8l190-110.8V756.3z M249.7,750.3h500.7V315.2l-190,110.8
		V315.2l-190,110.8V249.7H249.7V750.3z M738.3,738.3H261.7V261.7h96.5v159.1c0,5.4,2.9,10.4,7.6,13.1c4.6,2.6,10.5,2.6,15.1-0.1
		l167.3-97.6v84.6c0,5.4,2.9,10.4,7.6,13.1c4.6,2.6,10.5,2.6,15.1-0.1l167.3-97.6V738.3z M267.7,732.3h464.5V346.7L574,439.1
		c-3.2,1.9-6.9,2.9-10.6,2.9c-3.7,0-7.3-1-10.5-2.8c-6.5-3.8-10.6-10.8-10.6-18.3v-74.1L384,439.1c-3.2,1.9-6.9,2.9-10.6,2.9
		c-3.7,0-7.3-1-10.5-2.8c-6.5-3.8-10.6-10.8-10.6-18.3V267.7h-84.5V732.3z M658.3,647.8H595c-11.6,0-21.1-9.5-21.1-21.1v-63.3
		c0-11.6,9.5-21.1,21.1-21.1h63.3c11.6,0,21.1,9.5,21.1,21.1v63.3C679.4,638.3,670,647.8,658.3,647.8z M595,548.2
		c-8.3,0-15.1,6.8-15.1,15.1v63.3c0,8.3,6.8,15.1,15.1,15.1h63.3c8.3,0,15.1-6.8,15.1-15.1v-63.3c0-8.3-6.8-15.1-15.1-15.1H595z
		 M531.7,647.8h-63.3c-11.6,0-21.1-9.5-21.1-21.1v-63.3c0-11.6,9.5-21.1,21.1-21.1h63.3c11.6,0,21.1,9.5,21.1,21.1v63.3
		C552.8,638.3,543.3,647.8,531.7,647.8z M468.3,548.2c-8.3,0-15.1,6.8-15.1,15.1v63.3c0,8.3,6.8,15.1,15.1,15.1h63.3
		c8.3,0,15.1-6.8,15.1-15.1v-63.3c0-8.3-6.8-15.1-15.1-15.1H468.3z M405,647.8h-63.3c-11.6,0-21.1-9.5-21.1-21.1v-63.3
		c0-11.6,9.5-21.1,21.1-21.1H405c11.6,0,21.1,9.5,21.1,21.1v63.3C426.1,638.3,416.6,647.8,405,647.8z M341.7,548.2
		c-8.3,0-15.1,6.8-15.1,15.1v63.3c0,8.3,6.8,15.1,15.1,15.1H405c8.3,0,15.1-6.8,15.1-15.1v-63.3c0-8.3-6.8-15.1-15.1-15.1H341.7z
		 M661.3,629.7H592v-69.3h69.3V629.7z M598,623.7h57.3v-57.3H598V623.7z M534.7,629.7h-69.3v-69.3h69.3V629.7z M471.3,623.7h57.3
		v-57.3h-57.3V623.7z M408,629.7h-69.3v-69.3H408V629.7z M344.7,623.7H402v-57.3h-57.3V623.7z"/>
</g>
</svg>
