<?xml version="1.0" encoding="utf-8"?>
<!-- Generator: Adobe Illustrator 25.0.0, SVG Export Plug-In . SVG Version: 6.00 Build 0)  -->
<svg version="1.1" id="Layer_1" xmlns="http://www.w3.org/2000/svg" xmlns:xlink="http://www.w3.org/1999/xlink" x="0px" y="0px"
	 viewBox="0 0 1000 1000" style="enable-background:new 0 0 1000 1000;" xml:space="preserve">
<style type="text/css">
	.st0{fill:#ED1C24;}
	.st1{fill:#213047;}
</style>
<path class="st0" d="M500,20c64.8,0,127.7,12.7,186.8,37.7c57.2,24.2,108.5,58.8,152.6,102.9c44.1,44.1,78.7,95.4,102.9,152.6
	c25,59.2,37.7,122,37.7,186.8s-12.7,127.7-37.7,186.8c-24.2,57.2-58.8,108.5-102.9,152.6c-44.1,44.1-95.4,78.7-152.6,102.9
	c-59.2,25-122,37.7-186.8,37.7s-127.7-12.7-186.8-37.7c-57.2-24.2-108.5-58.8-152.6-102.9C116.5,795.3,81.9,744,57.7,686.8
	C32.7,627.7,20,564.8,20,500s12.7-127.7,37.7-186.8c24.2-57.2,58.8-108.5,102.9-152.6c44.1-44.1,95.4-78.7,152.6-102.9
	C372.3,32.7,435.2,20,500,20 M500,0C223.9,0,0,223.9,0,500s223.9,500,500,500s500-223.9,500-500S776.1,0,500,0L500,0z"/>
<g>
	<g>
		<g>
			<g>
				<path class="st1" d="M303.6,629.3c1.2,0,2.4,0.1,3.8,0.4c0.1,0,0.2,0.1,0.3,0.1c0.6,0.2,1.1,0.4,1.7,0.5c0.3,0.1,0.7,0.2,1,0.3
					c0.4,0.1,0.9,0.3,1.2,0.3c0.3,0.1,0.8,0.4,1.2,0.6l0.7,0.4c0,0,0.1,0.1,0.1,0.1l0.6,0.3c0.3,0.2,0.8,0.4,1,0.5
					c0.5,0.3,1.3,1,1.8,1.4c0,0,0.1,0.1,0.1,0.1c0.5,0.4,1.1,0.9,1.4,1.2c0.6,0.5,1.2,1.3,1.6,1.8c0.5,0.6,1,1.2,1.5,1.9
					c0.5,0.7,1.1,1.6,1.4,2.2c0,0,0,0,0,0.1c0.1,0.2,0.4,0.9,0.6,1.4l0.2,0.5l0.3,0.6c0.3,0.7,0.7,1.5,0.9,1.9
					c0,0.1,0.1,0.3,0.1,0.4c0.1,0.6,0.3,1.2,0.4,1.7c0.1,0.3,0.2,0.7,0.3,1c0.2,0.8,0.5,1.6,0.5,2.1c0.1,0.4,0.1,0.8,0.2,1.2
					c0.2,1.7,0.3,3.3,0.3,4.7c0,0.1,0,0.3,0,0.4c0,7.9-2.7,15.3-7.6,20.8c-4.4,4.8-9.9,7.5-15.8,7.5c-5.8,0-11.4-2.7-15.8-7.5
					c-4.9-5.5-7.6-12.8-7.6-20.8c0-1.7,0.2-3.4,0.5-5.3c0-0.2,0.1-0.3,0.1-0.5l0,0c0.1-0.4,0.3-1.4,0.6-2.1c0.1-0.3,0.2-0.6,0.3-1
					c0.2-0.6,0.3-1.2,0.5-1.8c0-0.1,0.1-0.3,0.1-0.4c0.1-0.3,0.4-0.9,0.6-1.4c0.2-0.4,0.3-0.7,0.5-1.1l0,0l0.3-0.7
					c0.2-0.5,0.6-1.3,0.7-1.5c0.2-0.4,0.7-1.1,1.2-1.8l0.1-0.2c0.5-0.7,1.1-1.6,1.5-2.1c0,0,0,0,0.1-0.1c0.4-0.4,0.8-1,1.4-1.6
					c0.6-0.6,1.2-1.2,1.8-1.7c0,0,0.1-0.1,0.1-0.1c0.5-0.4,1.1-0.9,1.6-1.2c0.5-0.4,1.4-0.8,1.9-1.2l0.7-0.4c0.3-0.2,0.8-0.4,1-0.5
					c0.6-0.3,1.8-0.6,2.4-0.8c0.5-0.2,1.1-0.3,1.6-0.5c0.1,0,0.1,0,0.2-0.1C301.4,629.5,302.6,629.3,303.6,629.3 M300.3,629.7
					L300.3,629.7L300.3,629.7 M295.9,631L295.9,631L295.9,631 M282.4,646.2L282.4,646.2L282.4,646.2 M281.1,648.4L281.1,648.4
					L281.1,648.4 M303.6,609.3c-2.8,0-5.5,0.4-8.2,0.9c-1,0.2-1.9,0.6-2.9,0.9c-1.6,0.5-3.2,1-4.8,1.7c-1.1,0.5-2.1,1.1-3.1,1.6
					c-1.3,0.7-2.6,1.5-3.9,2.4c-1,0.7-2,1.5-3,2.3c-1.1,0.9-2.2,1.9-3.3,3c-0.9,0.9-1.8,1.9-2.6,2.9c-0.9,1.1-1.8,2.3-2.6,3.5
					c-0.8,1.1-1.6,2.3-2.2,3.5c-0.7,1.2-1.2,2.5-1.8,3.8c-0.6,1.4-1.3,2.7-1.8,4.2c-0.4,1.1-0.6,2.2-0.9,3.3c-0.5,1.7-1,3.4-1.3,5.3
					c0,0,0,0,0,0.1c-0.5,3-0.8,6-0.8,9.1c0,26.6,19.4,48.3,43.3,48.3s43.3-21.7,43.3-48.3c0.1-3.2-0.2-6.3-0.7-9.3
					c0,0-0.1-0.1-0.1-0.1c-0.3-1.9-0.8-3.6-1.3-5.4c-0.3-1-0.5-2.1-0.8-3.1c-0.6-1.6-1.3-3.2-2-4.7c-0.5-1.1-1-2.2-1.6-3.3
					c-0.8-1.4-1.6-2.7-2.5-3.9c-0.8-1.1-1.6-2.2-2.5-3.3c-1-1.1-1.9-2.2-3-3.3c-0.9-0.8-1.8-1.6-2.7-2.4c-1.2-1-2.3-1.9-3.6-2.7
					c-1-0.7-2.1-1.2-3.1-1.8c-1.3-0.7-2.5-1.4-3.8-1.9c-1.3-0.6-2.8-0.9-4.2-1.3c-1.1-0.3-2.2-0.8-3.4-1
					C309.1,609.6,306.4,609.3,303.6,609.3L303.6,609.3z"/>
				<path class="st1" d="M303.6,708.9c-25.6,0-46.3-23-46.3-51.3c0-3,0.3-6.1,0.8-9.4v-0.4l0.1-0.3c0.3-1.5,0.7-2.9,1.1-4.3l0.3-0.9
					c0.1-0.4,0.2-0.8,0.3-1.2c0.2-0.8,0.4-1.5,0.7-2.3c0.5-1.3,1-2.4,1.5-3.6l0.8-1.6c0.5-1.1,1-2.2,1.6-3.2
					c0.7-1.2,1.5-2.4,2.2-3.5l0.1-0.2c0.8-1.1,1.7-2.5,2.8-3.8c0.8-1,1.7-1.9,2.8-3c1.1-1.2,2.3-2.2,3.5-3.2c1-0.9,2.1-1.7,3.1-2.4
					c1.4-1,2.9-1.8,4.2-2.5l0.6-0.3c0.9-0.5,1.8-1,2.8-1.4c1.7-0.8,3.5-1.3,5.1-1.8c0.3-0.1,0.6-0.2,0.9-0.3
					c0.6-0.2,1.4-0.4,2.2-0.6c3.1-0.7,6-1,8.8-1c2.8,0,5.7,0.3,8.6,0.9c1,0.2,1.8,0.5,2.6,0.7c0.3,0.1,0.7,0.2,1,0.3l0.9,0.2
					c1.2,0.3,2.4,0.7,3.6,1.2c1.3,0.5,2.4,1.2,3.5,1.8l1.1,0.6c0.9,0.5,1.9,1,2.9,1.6c1.4,0.9,2.7,1.9,3.8,2.9c1,0.8,2,1.6,2.9,2.5
					c1,1,2,2,3.2,3.5c0.9,1.1,1.8,2.2,2.7,3.5c0.9,1.3,1.8,2.6,2.7,4.2c0.6,1,1.1,2,1.5,3l0.5,1c0.6,1.4,1.3,2.8,1.9,4.4
					c0.3,0.8,0.4,1.5,0.6,2.2c0.1,0.4,0.2,0.7,0.3,1.1l0.3,0.9c0.3,1.2,0.7,2.5,1,3.9l0.1,0.1l0.2,1c0.5,3.5,0.8,6.7,0.7,9.8
					C350,685.9,329.2,708.9,303.6,708.9z M264,649.4c-0.5,2.9-0.7,5.6-0.7,8.3c0,25,18.1,45.3,40.3,45.3s40.3-20.3,40.3-45.3
					c0.1-2.5-0.1-5.1-0.5-7.9l-0.2-0.2l0-1c-0.2-1.3-0.6-2.6-1-4l-0.3-1c-0.1-0.4-0.2-0.8-0.3-1.2c-0.1-0.6-0.3-1.2-0.5-1.7
					c-0.4-1.3-1-2.5-1.6-3.8l-0.5-1.1c-0.4-0.9-0.8-1.8-1.3-2.6c-0.7-1.3-1.6-2.5-2.4-3.7c-0.8-1.1-1.6-2.1-2.4-3.1
					c-1.1-1.3-2-2.2-2.8-3c-0.8-0.7-1.6-1.4-2.5-2.2c-1.1-0.9-2.2-1.8-3.3-2.5c-0.7-0.5-1.5-0.9-2.4-1.3l-1.2-0.6
					c-1-0.6-2-1.1-2.9-1.5c-0.9-0.4-1.9-0.7-2.9-1l-0.9-0.3c-0.4-0.1-0.8-0.2-1.2-0.4c-0.7-0.2-1.3-0.4-1.9-0.5
					c-5.2-1-9.6-1.1-15,0.1c-0.5,0.1-1,0.3-1.6,0.5c-0.4,0.1-0.7,0.2-1.1,0.3c-1.5,0.4-3,0.9-4.4,1.5c-0.7,0.3-1.5,0.7-2.3,1.2
					l-0.6,0.3c-1.1,0.6-2.4,1.3-3.6,2.2c-0.9,0.6-1.8,1.4-2.7,2.1c-1,0.9-2.1,1.8-3.1,2.8c-1,1-1.8,1.8-2.4,2.7
					c-0.8,1-1.6,2-2.5,3.3l-0.1,0.2c-0.7,1-1.4,2-2,3c-0.5,0.9-0.9,1.8-1.4,2.8l-0.8,1.7c-0.5,1-0.9,2-1.3,3
					c-0.2,0.5-0.3,1.2-0.5,1.8c-0.1,0.5-0.2,0.9-0.4,1.4l-0.3,0.9c-0.4,1.3-0.7,2.5-1,3.8v0.4L264,649.4z M303.6,688.9
					c-6.7,0-13.1-3-18-8.5c-5.4-6-8.4-14.1-8.4-22.8c0-1.8,0.2-3.7,0.5-5.8l0.6-3.7l0.3,0.1l0.1-0.3c0.2-0.6,0.3-1.2,0.5-1.8
					l0.3-0.9c0.1-0.4,0.4-1,0.7-1.4l0.8-1.8c0.4-0.9,0.7-1.4,0.8-1.7c0.3-0.4,0.6-1,1.3-1.9l0.2-0.2c0.6-0.8,1.2-1.7,1.7-2.3
					l0.1-0.1c0.4-0.5,0.9-1.1,1.6-1.7c0.7-0.7,1.4-1.3,2.1-1.9l2,2.2l-1.9-2.3c0.6-0.5,1.2-1,1.8-1.4c0.5-0.4,1.2-0.8,2.2-1.3
					l0.7-0.4c0.4-0.2,0.8-0.5,1.1-0.6l0.2-0.1c0.7-0.3,1.7-0.6,2.7-0.9c0.5-0.1,1-0.3,1.5-0.5l0.6-0.2c3.2-0.6,5.5-0.6,8.5,0
					l0.7,0.2c0.5,0.2,1.1,0.3,1.6,0.5l1,0.3c0.5,0.1,1,0.3,1.3,0.4l0.4,0.2c0.3,0.1,0.8,0.4,1.2,0.6l1.5,0.8
					c0.4,0.2,0.9,0.5,1.1,0.6l0.2,0.1c0.6,0.4,1.3,1,2,1.5l-1.8,2.4l1.9-2.3c0.7,0.5,1.2,1,1.6,1.4c0.7,0.7,1.4,1.5,1.9,2
					c0.5,0.6,1.1,1.3,1.6,2.1c0.6,0.8,1.2,1.7,1.6,2.4c0.2,0.3,0.4,0.8,0.8,1.6l0.5,1.1c0.3,0.7,0.7,1.5,0.9,2.1l0.2,0.8
					c0.1,0.5,0.3,1.1,0.4,1.6l0.3,1c0.2,0.9,0.5,1.8,0.6,2.3l0,0.1c0.1,0.4,0.1,0.7,0.2,1l0,0.2c0.2,1.9,0.3,3.6,0.3,5.2l0,0.4
					c0,8.7-3,16.8-8.4,22.8C316.7,685.9,310.3,688.9,303.6,688.9z M283.8,652.4c0,0.1-0.1,0.3-0.1,0.4c-0.3,1.7-0.4,3.3-0.4,4.8
					c0,7.2,2.4,13.9,6.8,18.8c3.8,4.2,8.6,6.5,13.5,6.5c4.9,0,9.7-2.3,13.5-6.5c4.4-4.9,6.8-11.6,6.8-18.8l0-0.5
					c0-1.3,0-2.7-0.2-4.2c-0.1-0.4-0.1-0.8-0.2-1.2c-0.1-0.4-0.3-1.2-0.5-1.8l-0.3-1.1c-0.2-0.6-0.3-1.2-0.4-1.8l0-0.2
					c-0.2-0.4-0.5-1-0.7-1.6l-0.5-1.1c-0.2-0.4-0.4-0.9-0.5-1.2l0-0.1c-0.3-0.5-0.8-1.3-1.3-1.9c-0.4-0.6-0.9-1.2-1.3-1.7
					c-0.2-0.3-0.9-1.1-1.5-1.6c-0.2-0.2-0.8-0.7-1.2-1l-0.1-0.1c-0.3-0.3-1-0.9-1.5-1.2c-0.2-0.1-0.5-0.3-0.8-0.4l-1.6-0.8
					c-0.3-0.1-0.6-0.3-0.8-0.4c-0.2-0.1-0.6-0.2-0.8-0.2l-1.1-0.3c-0.6-0.2-1.2-0.4-1.8-0.6l-0.1,0c-2-0.4-3.6-0.4-5.8,0l0,0
					c-0.5,0.2-1.1,0.4-1.7,0.5c-0.4,0.1-1.5,0.4-2,0.6c-0.2,0.1-0.5,0.3-0.8,0.4l-0.7,0.4c-1,0.5-1.5,0.8-1.7,1
					c-0.4,0.3-0.9,0.7-1.3,1l-0.1,0.1c-0.5,0.4-1,0.9-1.6,1.5c-0.5,0.5-1,1-1.3,1.4l-0.1,0.1c-0.3,0.4-0.9,1.2-1.3,1.8l-0.1,0.2
					c-0.4,0.6-0.9,1.3-1,1.6c-0.1,0.2-0.4,0.8-0.6,1.3l-0.8,1.8c-0.2,0.4-0.4,0.8-0.5,1.1l-0.1,0.2c-0.2,0.6-0.3,1.3-0.5,1.9l-0.3,1
					c-0.1,0.5-0.4,1.5-0.5,1.8L283.8,652.4z"/>
			</g>
			<g>
				<path class="st1" d="M742.3,364.4l83.6,91.5l-0.4,147.3c-0.8-1.1-1.7-2.1-2.5-3c-0.2-0.2-0.5-0.6-0.8-0.9
					c-2.4-2.7-5.1-5.2-8.3-7.9c0,0-0.1-0.1-0.1-0.1l-0.3-0.2c-0.4-0.3-0.7-0.6-1.1-0.9c-3.2-2.5-6.3-4.7-9.6-6.5
					c-0.1-0.1-0.2-0.1-0.3-0.2c-0.2-0.1-0.5-0.3-0.7-0.4c-3.2-1.8-6.5-3.3-9.9-4.6c-0.4-0.1-0.7-0.3-1.1-0.4c-0.1,0-0.1,0-0.2-0.1
					c-3.5-1.2-7.2-2.3-11.1-3c-0.8-0.2-1.4-0.3-1.9-0.3l-0.3,0c0,0-0.1,0-0.1,0c-4.3-0.7-8.2-1-11.9-1c-3.7,0-7.6,0.3-11.9,1
					c0,0-0.1,0-0.1,0l-0.4,0.1c-0.5,0.1-1,0.2-1.6,0.3c-3.9,0.7-7.7,1.8-11.2,3c-0.1,0.1-0.3,0.1-0.4,0.2c-0.3,0.1-0.5,0.2-0.8,0.3
					l0,0c-3.4,1.3-6.8,2.9-10,4.6c-0.3,0.1-0.6,0.3-1,0.6c-3.3,1.9-6.5,4.1-9.6,6.6c-0.1,0.1-0.1,0.1-0.2,0.2l-0.2,0.1
					c-0.3,0.3-0.6,0.5-1,0.8c-6,4.9-11.3,10.8-15.8,17.4l-0.1,0.2c-0.2,0.3-0.5,0.6-0.7,1c0,0.1-0.1,0.1-0.1,0.2
					c-1.8,2.8-3.5,5.8-5,8.8H374.6c-3.3-6.9-7.5-13.3-12.7-19.1c-0.2-0.2-0.3-0.4-0.5-0.6l0,0c-0.3-0.4-0.8-1-1.5-1.7
					c-1.4-1.4-2.6-2.4-3.4-3l-0.1-0.1c-1.5-1.4-3.8-3.5-6.4-5.4c-0.6-0.4-1.1-0.8-1.7-1.2h253.9c1.3,0,2.5-0.1,3.5-0.3h47.5
					c15.4,0,28-12.7,28-28.2V364.4H742.3 M608.6,586.6L608.6,586.6L608.6,586.6 M259.6,587.2c-1,0.7-2,1.5-3.1,2.3
					c-0.7,0.5-1.2,1-1.8,1.5c-3.1,2.6-5.7,5.1-8.2,7.8c0,0,0,0,0,0.1c-0.4,0.4-0.7,0.8-0.9,1c-0.9,1-1.8,2.1-2.6,3.2v-15.9H259.6
					 M751.1,344.4h-89.9V559c0,4.5-3.6,8.2-8,8.2h-49.6c-0.5,0.1-0.9,0.3-1.4,0.3h-327c-0.5,0-0.9-0.2-1.4-0.3H223v71.6h23.9
					c0.9-3.2,2.1-6.3,3.4-9.2c0.1-0.3,0.3-0.6,0.4-0.9c1.3-2.8,2.8-5.5,4.4-8.1c0.2-0.3,0.4-0.6,0.6-0.9c1.6-2.4,3.3-4.7,5.2-6.8
					c0.2-0.2,0.3-0.4,0.5-0.6c1.9-2.1,4-4.1,6.2-5.9c0.4-0.4,0.9-0.7,1.3-1.1c2.2-1.8,4.6-3.4,7-4.8c0.3-0.1,0.5-0.3,0.8-0.4
					c2.4-1.3,4.8-2.5,7.3-3.4c0.4-0.2,0.8-0.3,1.1-0.5c2.6-0.9,5.3-1.7,8.1-2.2c0.6-0.1,1.1-0.2,1.7-0.3c2.9-0.5,5.7-0.8,8.7-0.8
					c3.7,0,7.3,0.4,10.8,1.1c1.3,0.2,2.5,0.7,3.7,1c2.2,0.6,4.3,1.2,6.4,2c1.4,0.6,2.8,1.2,4.2,1.9c1.8,0.9,3.6,1.9,5.3,3
					c1.3,0.8,2.6,1.7,3.9,2.7c1.7,1.3,3.4,2.8,5,4.3c0.8,0.8,1.7,1.3,2.5,2.1c0.4,0.4,0.7,0.8,1,1.2c0.2,0.2,0.3,0.4,0.4,0.5
					c6.6,7.5,11.4,16.3,13.9,26h348c0.9-3.1,2.1-6.1,3.4-9c0.2-0.3,0.3-0.7,0.5-1c1.3-2.8,2.8-5.4,4.4-7.9c0.2-0.3,0.5-0.7,0.7-1
					c3.4-5,7.5-9.5,12-13.3c0.3-0.3,0.6-0.5,0.9-0.8c2.3-1.8,4.7-3.5,7.3-4.9c0.2-0.1,0.3-0.2,0.5-0.3c2.5-1.4,5.1-2.6,7.7-3.6
					c0.3-0.1,0.5-0.2,0.8-0.3c2.7-1,5.4-1.7,8.2-2.2c0.5-0.1,1.1-0.2,1.6-0.3c2.8-0.5,5.7-0.8,8.7-0.8s5.8,0.3,8.7,0.8
					c0.5,0.1,1.1,0.2,1.6,0.3c2.8,0.5,5.5,1.3,8.2,2.2c0.3,0.1,0.5,0.2,0.8,0.3c2.6,1,5.2,2.2,7.6,3.5c0.2,0.1,0.4,0.2,0.6,0.3
					c2.5,1.4,4.9,3.1,7.1,4.9c0.4,0.3,0.8,0.6,1.1,0.9c2.2,1.8,4.4,3.8,6.3,6c0.1,0.1,0.2,0.3,0.4,0.4c1.8,2,3.5,4.2,5,6.5
					c0.3,0.5,0.7,1,1,1.5c1.5,2.4,2.9,4.9,4.1,7.4c0.3,0.6,0.5,1.1,0.8,1.7c1.2,2.7,2.3,5.5,3.1,8.3c0,0.1,0.1,0.1,0.1,0.2h23.5
					l0.5-190.6L751.1,344.4L751.1,344.4z"/>
				<path class="st1" d="M711,641.8H358.4l-0.6-2.2c-2.4-9.3-6.9-17.6-13.3-24.8c-0.1-0.1-0.2-0.2-0.3-0.3l-0.2-0.2
					c-0.2-0.2-0.3-0.4-0.5-0.6c-0.1-0.2-0.3-0.3-0.4-0.5c-0.3-0.3-0.7-0.6-1.1-0.9c-0.4-0.3-0.8-0.7-1.3-1.1c-1.8-1.7-3.3-3-4.7-4.1
					c-1.3-1-2.6-1.8-3.7-2.5c-1.6-1-3.2-1.9-5-2.8c-1.3-0.7-2.7-1.3-4-1.8c-2-0.8-4.1-1.4-6.1-1.9c-0.5-0.1-0.9-0.3-1.4-0.4
					c-0.7-0.2-1.4-0.4-2.1-0.5c-3.6-0.7-7-1.1-10.2-1.1c-2.5,0-5.1,0.2-8.2,0.7l-0.5,0.1c-0.4,0.1-0.7,0.1-1.1,0.2
					c-2.7,0.5-5.3,1.2-7.7,2.1c-0.2,0.1-0.4,0.1-0.6,0.2c-0.2,0.1-0.3,0.1-0.5,0.2c-2.4,0.9-4.8,2-6.9,3.2c-0.2,0.1-0.3,0.2-0.5,0.2
					l-0.3,0.2c-2.2,1.3-4.3,2.8-6.6,4.6c-0.4,0.3-0.8,0.7-1.2,1c-2.2,1.9-4.2,3.7-5.9,5.7c-0.1,0.1-0.1,0.2-0.2,0.3l-0.2,0.3
					c-1.8,2-3.4,4.2-5,6.5c-0.1,0.2-0.2,0.3-0.3,0.5c-0.1,0.1-0.2,0.3-0.3,0.4c-1.5,2.4-3,5-4.2,7.8c-0.1,0.2-0.1,0.3-0.2,0.5
					l-0.2,0.4c-1.4,3.1-2.4,6-3.2,8.8l-0.6,2.2H220v-77.6l54.4,0c0.3,0,0.5,0.1,0.8,0.2c0.1,0,0.1,0,0.2,0h326.8c0.1,0,0.1,0,0.2,0
					c0.3-0.1,0.5-0.1,0.8-0.2l0.5,0h49.6c2.8,0,5-2.3,5-5.2V341.4h94.2L848.9,447l-0.5,194.8h-28.8l-0.6-2.1c0-0.1,0-0.1-0.1-0.2
					l0-0.1c-0.7-2.5-1.7-5-3-8l-0.2-0.6c-0.2-0.4-0.3-0.7-0.5-1.1c-1.2-2.4-2.5-4.8-4-7.1c-0.2-0.3-0.4-0.6-0.6-0.8l-0.4-0.6
					c-1.6-2.4-3.2-4.4-4.8-6.2c-0.1-0.1-0.2-0.2-0.3-0.3l-0.1-0.1c-1.7-1.9-3.7-3.7-6-5.7l-0.4-0.3c-0.2-0.2-0.5-0.4-0.7-0.6
					c-2.3-1.8-4.5-3.3-6.8-4.6l-0.1-0.1c-0.2-0.1-0.3-0.2-0.5-0.3c-2.3-1.2-4.7-2.4-7.2-3.3c-0.1-0.1-0.3-0.1-0.5-0.2
					c-0.1,0-0.2-0.1-0.3-0.1c-2.4-0.8-5-1.6-7.7-2.1c-0.3-0.1-0.6-0.1-1-0.2l-0.6-0.1c-3.1-0.5-5.7-0.7-8.2-0.7
					c-2.5,0-5.1,0.2-8.2,0.7l-0.5,0.1c-0.3,0.1-0.7,0.1-1,0.2c-2.7,0.5-5.3,1.2-7.8,2.1l-0.3,0.1c-0.1,0.1-0.3,0.1-0.5,0.2
					c-2.5,1-5,2.1-7.3,3.4c-0.1,0.1-0.2,0.1-0.3,0.2l-0.1,0c-2.4,1.3-4.7,2.9-6.9,4.7l-0.2,0.1c-0.2,0.2-0.5,0.4-0.7,0.6
					c-4.4,3.6-8.2,7.8-11.5,12.7l-0.3,0.4c-0.1,0.2-0.3,0.4-0.4,0.6c-1.6,2.4-3,4.9-4.2,7.5c-0.1,0.2-0.2,0.4-0.3,0.6l-0.2,0.4
					c-1.4,3.1-2.5,5.9-3.2,8.6L711,641.8z M363,635.8h343.5c0.8-2.3,1.7-4.6,2.8-7.2l0.1-0.3c0.1-0.3,0.2-0.5,0.3-0.8
					c1.3-2.8,2.9-5.6,4.6-8.3c0.2-0.3,0.3-0.5,0.5-0.7l0.2-0.4c3.6-5.3,7.8-10,12.6-13.9c0.2-0.2,0.5-0.4,0.8-0.6l0.2-0.2
					c2.5-2,5.1-3.7,7.7-5.2c0.1-0.1,0.2-0.1,0.4-0.2l0.1-0.1c2.6-1.4,5.3-2.7,8.1-3.8l0.3-0.1c0.1-0.1,0.3-0.1,0.5-0.2
					c2.8-1,5.7-1.8,8.7-2.4c0.4-0.1,0.8-0.1,1.1-0.2l0.5-0.1c3.4-0.6,6.4-0.8,9.2-0.8s5.8,0.3,9.2,0.8l0.5,0.1
					c0.4,0.1,0.8,0.1,1.2,0.2c3,0.6,5.9,1.4,8.6,2.3c0.2,0.1,0.4,0.1,0.5,0.2c0.1,0,0.2,0.1,0.3,0.1c2.8,1.1,5.5,2.3,8,3.7
					c0.1,0.1,0.2,0.1,0.2,0.1c0.1,0.1,0.2,0.1,0.4,0.2c2.5,1.5,5,3.1,7.5,5.1c0.3,0.2,0.6,0.4,0.8,0.7l0.3,0.3
					c2.6,2.2,4.8,4.2,6.6,6.3c0.1,0.1,0.2,0.2,0.3,0.4l0.1,0.1c1.7,1.9,3.5,4.2,5.2,6.7l0.4,0.5c0.2,0.3,0.5,0.7,0.7,1
					c1.6,2.5,3.1,5.1,4.3,7.8c0.2,0.4,0.4,0.8,0.6,1.3l0.2,0.5c1.1,2.4,1.9,4.6,2.6,6.7h18.3l0.5-186.5l-93.1-101.9h-85.6V559
					c0,6.2-4.9,11.2-11,11.2H604c0,0,0,0,0,0c-0.4,0.1-1,0.3-1.7,0.3h-327c-0.7,0-1.3-0.2-1.7-0.3c0,0,0,0,0,0H226v65.6h18.7
					c0.8-2.4,1.7-4.8,2.9-7.4l0.1-0.3c0.1-0.2,0.2-0.4,0.3-0.6c1.4-3,2.9-5.9,4.6-8.5c0.1-0.2,0.3-0.4,0.4-0.6
					c0.1-0.1,0.2-0.2,0.2-0.3c1.7-2.5,3.5-4.9,5.4-7.1l0.1-0.2c0.1-0.2,0.3-0.3,0.4-0.5c1.9-2.1,4.1-4.2,6.5-6.2
					c0.5-0.4,0.9-0.8,1.4-1.1c2.5-2,4.9-3.6,7.3-5c0.2-0.1,0.3-0.2,0.5-0.3c0.1-0.1,0.2-0.1,0.3-0.2c2.4-1.4,5-2.6,7.7-3.6l0.4-0.1
					c0.3-0.1,0.6-0.2,0.8-0.3c2.7-1,5.6-1.7,8.6-2.3c0.4-0.1,0.9-0.2,1.3-0.2l0.4-0.1c3.5-0.6,6.4-0.8,9.2-0.8
					c3.6,0,7.3,0.4,11.3,1.2c0.9,0.2,1.8,0.4,2.6,0.7c0.4,0.1,0.8,0.2,1.3,0.4c2.2,0.6,4.5,1.2,6.8,2.2c1.5,0.6,2.9,1.3,4.4,2
					c2,1,3.8,2,5.6,3.1c1.1,0.7,2.6,1.7,4.1,2.8c1.6,1.2,3.2,2.6,5.2,4.5c0.3,0.3,0.6,0.5,0.9,0.8c0.5,0.4,1.1,0.9,1.7,1.5
					c0.3,0.3,0.5,0.5,0.7,0.8c0.1,0.1,0.2,0.3,0.4,0.4c0.1,0.1,0.2,0.2,0.3,0.4l0.2,0.2C355.5,618.1,360.2,626.5,363,635.8z
					 M697,621.8H372.7l-0.8-1.7c-3.2-6.6-7.3-12.8-12.2-18.4c-0.2-0.3-0.4-0.4-0.5-0.6l-0.1-0.1c-0.3-0.4-0.8-1-1.4-1.6
					c-1.2-1.3-2.4-2.2-3.1-2.8l-0.3-0.2c-1.4-1.3-3.6-3.3-6.1-5.2c-0.5-0.4-1.1-0.8-1.6-1.2l-7.7-5.4h263.3c1,0,2-0.1,3-0.2l0.5,0
					h2.8l0-0.6h0v0.6h44.7c13.8,0,25-11.3,25-25.2V361.4h65.4l85.3,93.3l-0.4,157l-5.3-6.7c-0.8-1-1.6-2-2.4-2.9l-0.1-0.1
					c-0.2-0.2-0.4-0.5-0.7-0.8c-2.3-2.6-4.9-5-8-7.6l1.8-2.4l-1.9,2.3l-0.3-0.2c-0.4-0.3-0.7-0.6-1.1-0.9c-3.1-2.4-6.1-4.5-9.2-6.3
					L801,586c-0.2-0.1-0.4-0.2-0.6-0.3c-3.1-1.7-6.4-3.2-9.6-4.5c-0.4-0.2-0.7-0.3-1-0.4l-0.1-0.1c-3.3-1.2-6.9-2.2-10.6-2.9
					c-0.7-0.1-1.3-0.2-1.7-0.3l-0.5-0.1c-4.1-0.7-7.8-1-11.4-1c-3.6,0-7.3,0.3-11.4,1l-0.5,0.1c-0.5,0.1-1,0.2-1.5,0.3
					c-3.7,0.7-7.4,1.7-10.8,2.9l-0.4,0.1c-0.2,0.1-0.5,0.2-0.7,0.3l-0.1,0c-3.3,1.3-6.5,2.8-9.6,4.4c-0.3,0.2-0.6,0.3-1,0.5
					c-3.2,1.8-6.3,3.9-9.3,6.3l-0.3,0.3c-0.3,0.3-0.6,0.5-0.9,0.8c-5.8,4.8-10.9,10.4-15.2,16.7l-0.2,0.2c-0.2,0.3-0.4,0.6-0.6,0.9
					l-0.1,0.1c-1.8,2.7-3.4,5.6-4.9,8.5L697,621.8z M376.4,615.8h316.9c1.3-2.5,2.8-5,4.4-7.5l0.1-0.2c0.2-0.3,0.5-0.7,0.7-1
					l0.1-0.2c4.6-6.8,10.1-12.8,16.3-18c0.3-0.3,0.6-0.5,1-0.8l0.4-0.3c3.2-2.6,6.6-4.9,10-6.8c0.4-0.3,0.8-0.5,1.1-0.6
					c3.2-1.8,6.7-3.4,10.3-4.8c0.2-0.1,0.5-0.2,0.8-0.3c0.2-0.1,0.3-0.1,0.5-0.2c3.7-1.3,7.7-2.4,11.7-3.2c0.6-0.1,1.1-0.2,1.6-0.3
					l0.5-0.1c4.4-0.7,8.5-1.1,12.4-1.1c3.9,0,7.9,0.4,12.4,1.1l0.4,0.1c0.5,0.1,1.2,0.2,2,0.4c4,0.8,7.9,1.8,11.5,3.1l0.2,0.1
					c0.4,0.1,0.8,0.3,1.2,0.5c3.5,1.3,6.9,2.9,10.2,4.7c0.2,0.1,0.5,0.2,0.7,0.4l0.3,0.2c3.3,1.9,6.6,4.1,9.9,6.7
					c0.4,0.3,0.8,0.6,1.2,0.9l0.4,0.3c2.5,2.1,4.7,4.1,6.8,6.2l0.4-138.1L741,367.4h-56.7V559c0,17.2-13.9,31.2-31,31.2H606
					c-1.2,0.2-2.5,0.3-3.7,0.3H356.8c0.5,0.5,1,0.9,1.5,1.4c0.8,0.6,2.2,1.7,3.7,3.3c0.8,0.8,1.3,1.5,1.6,1.9
					c0.2,0.2,0.4,0.4,0.6,0.7C369,603.2,373.2,609.3,376.4,615.8z M240,611.8v-27.6h28.9l-7.5,5.4c-1,0.7-2,1.5-3,2.2
					c-0.7,0.5-1.2,1-1.8,1.4c-3,2.5-5.5,4.9-7.9,7.5c-0.4,0.4-0.7,0.8-0.8,1c-0.9,1.1-1.8,2.1-2.6,3.1L240,611.8z M246,590.2v4.8
					c1.6-1.7,3.3-3.3,5.1-4.8H246z"/>
			</g>
			<g>
				<path class="st1" d="M765.3,629.9c1.1,0,2.3,0.1,3.6,0.4c0.1,0,0.2,0.1,0.2,0.1c0.5,0.2,1,0.3,1.5,0.5c0.7,0.2,1.9,0.6,2.3,0.8
					c0.3,0.1,1,0.5,1.6,0.9c0.9,0.5,1.6,0.9,2.1,1.2c0.5,0.3,1,0.7,1.5,1.2c0.6,0.5,1.3,1.1,1.9,1.7c0,0,0,0,0,0
					c0.5,0.5,1.1,1.1,1.4,1.5c0.6,0.7,1.3,1.7,1.7,2.4c0,0,0,0,0,0.1c0.2,0.3,0.4,0.5,0.5,0.8c0.2,0.3,0.5,0.7,0.6,0.8
					c0.5,0.8,1,2.1,1.5,3.1c0,0,0,0.1,0.1,0.1c0.2,0.5,0.5,1,0.7,1.5c0,0.1,0.1,0.1,0.1,0.2c0.5,1.3,0.9,2.8,1.2,4.5
					c0.1,0.5,0.2,0.9,0.3,1.3c0.3,1.7,0.4,3.5,0.4,5.3c0,7.9-2.7,15.3-7.6,20.8c-4.4,4.8-9.9,7.5-15.8,7.5c-5.8,0-11.3-2.5-15.6-7
					c-5.1-5.4-7.9-12.9-7.7-20.8c0-0.1,0-0.3,0-0.4c0-1.8,0.1-3.6,0.4-5.3c0.1-0.4,0.2-0.8,0.3-1.3c0.3-1.6,0.7-3.1,1.2-4.5
					c0-0.1,0.1-0.1,0.1-0.2c0.3-0.5,0.5-1.1,0.7-1.6c0,0,0,0,0-0.1c0.5-1.1,1-2.3,1.4-3.1c0.1-0.2,0.4-0.5,0.5-0.8
					c0.2-0.3,0.4-0.6,0.6-0.9c0.5-0.7,1.1-1.7,1.7-2.4c0,0,0,0,0,0c0.3-0.4,0.8-0.9,1.3-1.4c0,0,0,0,0,0c0.6-0.6,1.2-1.2,1.9-1.7
					c0.6-0.5,1.1-0.9,1.6-1.2c0.6-0.4,1.4-0.9,2-1.2l0.4-0.2c0.4-0.2,1-0.5,1.2-0.6c0,0,0,0,0.1,0c0.4-0.2,1.7-0.6,2.3-0.8
					c0.5-0.1,1-0.3,1.5-0.5c0.1,0,0.2-0.1,0.2-0.1C763.1,630.1,764.2,629.9,765.3,629.9 M761.9,630.3L761.9,630.3L761.9,630.3
					 M784.4,642.2C784.4,642.2,784.4,642.2,784.4,642.2L784.4,642.2 M784.4,642.2C784.4,642.2,784.4,642.2,784.4,642.2L784.4,642.2
					 M742.9,648.5L742.9,648.5L742.9,648.5 M765.3,609.9c-2.8,0-5.5,0.4-8.1,0.9c-1,0.2-2,0.6-2.9,0.9c-1.6,0.5-3.2,1-4.7,1.6
					c-1.1,0.5-2.1,1.1-3.2,1.7c-1.3,0.7-2.6,1.5-3.8,2.3c-1,0.7-2,1.5-2.9,2.3c-1.2,1-2.3,2-3.4,3.1c-0.8,0.9-1.7,1.7-2.4,2.6
					c-1.1,1.3-2,2.6-3,4c-0.6,0.9-1.3,1.8-1.8,2.8c-1,1.7-1.8,3.4-2.5,5.2c-0.4,0.9-0.8,1.7-1.2,2.6c-0.9,2.5-1.6,5.1-2.2,7.8
					c-0.1,0.3-0.2,0.5-0.2,0.8c0,0,0,0,0,0c-0.6,3.1-0.9,6.4-0.9,9.7c-0.3,13.2,4.5,25.8,13.2,35c8.1,8.5,18.8,13.3,30.1,13.3
					c23.9,0,43.3-21.7,43.3-48.3c0-3.3-0.3-6.6-0.9-9.7c0,0,0,0,0,0c-0.1-0.3-0.2-0.5-0.2-0.8c-0.5-2.7-1.3-5.3-2.2-7.8
					c-0.3-0.9-0.8-1.7-1.2-2.6c-0.8-1.8-1.6-3.6-2.6-5.2c-0.6-1-1.2-1.9-1.8-2.8c-0.9-1.4-1.9-2.8-3-4c-0.8-0.9-1.6-1.8-2.4-2.6
					c-1.1-1.1-2.2-2.1-3.4-3.1c-1-0.8-1.9-1.5-2.9-2.3c-1.2-0.8-2.5-1.6-3.8-2.3c-1.1-0.6-2.1-1.2-3.2-1.6c-1.5-0.7-3.1-1.1-4.7-1.6
					c-1-0.3-1.9-0.7-2.9-0.9C770.8,610.3,768.1,609.9,765.3,609.9L765.3,609.9z"/>
				<path class="st1" d="M765.3,709.5c-12.1,0-23.6-5-32.3-14.2c-9.2-9.7-14.4-23.3-14-37.1c0-3.3,0.3-6.6,0.9-9.9v-0.5l0.2-0.4
					c0-0.1,0-0.1,0.1-0.2l0-0.1c0.6-2.9,1.4-5.7,2.3-8.2c0.3-0.7,0.6-1.3,0.8-1.9c0.1-0.3,0.3-0.6,0.4-0.9c0.8-1.8,1.6-3.7,2.7-5.5
					c0.5-0.8,1-1.5,1.5-2.2l0.5-0.7c0.8-1.2,1.9-2.8,3.2-4.3c0.9-1,1.8-2,2.6-2.8c1.1-1.2,2.3-2.3,3.6-3.3c1.1-0.9,2.1-1.7,3.1-2.4
					c1.1-0.8,2.4-1.6,4.1-2.5l0.4-0.2c1-0.5,2-1.1,3-1.5c1.6-0.7,3.3-1.2,5-1.7c0.3-0.1,0.6-0.2,0.9-0.3c0.7-0.2,1.5-0.5,2.3-0.7
					c6.1-1.3,11.3-1.3,17.5,0c0.8,0.2,1.6,0.4,2.3,0.7c0.3,0.1,0.6,0.2,0.9,0.3c1.7,0.5,3.4,1,5,1.7c1.2,0.5,2.3,1.2,3.4,1.8
					c1.6,0.9,2.9,1.7,4.1,2.5c1,0.7,2.1,1.5,3.2,2.4c1.2,1,2.5,2.1,3.6,3.3c0.8,0.9,1.7,1.8,2.6,2.8c1,1.2,2,2.5,3.2,4.3l0.4,0.6
					c0.5,0.7,1,1.5,1.5,2.3c1.1,1.9,2,3.9,2.7,5.5c0.1,0.3,0.3,0.6,0.4,0.8c0.3,0.6,0.6,1.2,0.8,1.9c0.9,2.5,1.7,5.3,2.3,8.2l0,0.1
					c0,0.1,0.1,0.2,0.1,0.3l0,0.1l0.1,0.4c0.6,3.3,0.9,6.8,0.9,10.2C811.7,686.5,790.9,709.5,765.3,709.5z M725.7,649.5
					c-0.5,2.8-0.7,5.8-0.7,8.7c-0.3,12.4,4.2,24.3,12.4,32.9c7.6,7.9,17.5,12.3,27.9,12.3c22.2,0,40.3-20.3,40.3-45.3
					c0-2.9-0.3-5.9-0.8-8.7l-0.1-0.2l0-0.3c-0.1-0.2-0.1-0.4-0.2-0.7c-0.5-2.6-1.2-5.1-2-7.3c-0.2-0.4-0.4-0.9-0.6-1.4
					c-0.2-0.3-0.3-0.7-0.5-1c-0.7-1.6-1.5-3.3-2.4-4.9c-0.4-0.6-0.8-1.3-1.3-1.9l-0.5-0.7c-1.1-1.6-2-2.8-2.8-3.8
					c-0.7-0.8-1.5-1.7-2.3-2.4c-1-1-2.1-2-3.2-2.9c-1-0.8-1.9-1.5-2.7-2.1c-1-0.7-2.1-1.4-3.5-2.1c-1-0.6-2-1.1-3-1.5
					c-1.3-0.6-2.7-1-4.3-1.5c-0.3-0.1-0.7-0.2-1-0.3c-0.6-0.2-1.1-0.4-1.7-0.5c-5.4-1.1-9.7-1.1-15,0c-0.5,0.1-1.1,0.3-1.7,0.5
					c-0.3,0.1-0.7,0.2-1,0.3c-1.6,0.5-3,0.9-4.3,1.5c-0.8,0.4-1.7,0.8-2.6,1.3l-0.4,0.2c-1.5,0.8-2.6,1.5-3.5,2.1
					c-0.9,0.6-1.8,1.3-2.7,2.1c-1.1,0.9-2.2,1.9-3.2,2.9c-0.9,0.9-1.6,1.7-2.3,2.5c-1.1,1.3-2.1,2.7-2.8,3.8l-0.5,0.8
					c-0.4,0.6-0.9,1.2-1.2,1.9c-0.9,1.5-1.7,3.3-2.4,4.9c-0.2,0.4-0.3,0.7-0.5,1.1c-0.2,0.5-0.4,0.9-0.6,1.4
					c-0.8,2.3-1.5,4.7-2.1,7.4c0,0.2-0.1,0.4-0.2,0.6v0.4L725.7,649.5z M765.3,689.5c-6.6,0-12.9-2.8-17.8-8
					c-5.6-5.9-8.8-14.3-8.6-22.9l0-0.4c0-1.9,0.2-3.9,0.5-5.8l0.1-0.3c0.1-0.3,0.2-0.7,0.3-1.1c0.4-1.8,0.8-3.4,1.3-4.9l0.2-0.5
					c0.2-0.5,0.5-1,0.7-1.5c0.5-1.2,1.1-2.5,1.6-3.4l0.1-0.1c0.1-0.2,0.4-0.5,0.6-0.8l0.6-0.9c0.5-0.7,1.2-1.8,1.9-2.6l0.1-0.1
					c0.4-0.5,0.9-1,1.5-1.6c0.7-0.7,1.4-1.4,2.2-2c0.7-0.5,1.2-1,1.8-1.4c0.7-0.5,1.6-1,2.2-1.3l0.4-0.2c0.5-0.3,1.2-0.6,1.3-0.7
					l0.1,0c0.5-0.2,1.4-0.5,2.7-0.9c0.5-0.1,0.9-0.3,1.4-0.4l0.6-0.2c3.1-0.6,5.3-0.6,8.4,0l0.6,0.2c0.5,0.2,0.9,0.3,1.4,0.4
					c1.3,0.4,2.1,0.7,2.7,0.9c0.3,0.2,0.9,0.4,1.9,1c1,0.6,1.7,1,2.3,1.4c0.6,0.4,1.1,0.8,1.8,1.4c0.7,0.6,1.4,1.2,2.1,1.9
					c0.8,0.8,1.3,1.3,1.6,1.7c0.7,0.8,1.4,1.9,1.9,2.6l0.5,0.7l-2.4,1.8l2.5-1.7c0.2,0.3,0.5,0.7,0.6,0.9l0.1,0.1
					c0.6,1,1.1,2.3,1.6,3.4l0,0.1c0.2,0.5,0.4,1,0.7,1.4l0.2,0.5c0.5,1.5,1,3.1,1.3,4.9c0.1,0.4,0.2,0.8,0.3,1.1l0.1,0.3
					c0.3,1.9,0.5,3.8,0.5,5.8c0,8.7-3,16.8-8.4,22.8C778.4,686.5,772,689.5,765.3,689.5z M745.3,653.5c-0.2,1.5-0.4,3.1-0.4,4.7
					c0,0.2,0,0.3,0,0.5c-0.2,7,2.4,13.8,6.9,18.6c3.7,3.9,8.5,6.1,13.4,6.1c4.9,0,9.7-2.3,13.5-6.5c4.4-4.9,6.8-11.6,6.8-18.8
					c0-1.6-0.1-3.2-0.4-4.7c-0.1-0.4-0.2-0.8-0.3-1.3c-0.3-1.4-0.6-2.7-1-3.9l0,0c-0.3-0.5-0.5-1.1-0.8-1.6l-0.1-0.2
					c-0.2-0.5-0.8-1.9-1.3-2.7c-0.1-0.2-0.3-0.4-0.4-0.7l-0.6-0.9c-0.2-0.3-0.9-1.4-1.5-2.1c-0.3-0.3-1-1-1.2-1.3
					c-0.6-0.6-1.1-1.1-1.7-1.6c-0.5-0.4-0.9-0.8-1.3-1c-0.4-0.3-1-0.6-1.8-1.1c-0.5-0.3-1.1-0.6-1.4-0.8c-0.2-0.1-0.9-0.3-1.9-0.6
					c-0.6-0.2-1.1-0.3-1.6-0.5l-0.1,0c-1.1-0.2-2-0.3-2.9-0.3c-0.8,0-1.8,0.1-2.9,0.3l-0.1,0c-0.5,0.2-1,0.3-1.6,0.5
					c-0.4,0.1-1.7,0.5-2,0.6c-0.1,0.1-0.6,0.3-0.9,0.5l-0.5,0.3c-0.3,0.2-1.2,0.7-1.7,1c-0.4,0.3-0.9,0.6-1.4,1.1
					c-0.6,0.5-1.1,1-1.7,1.5c-0.3,0.3-0.9,0.9-1.2,1.3l-0.1,0.1c-0.5,0.6-1.3,1.7-1.5,2.1l-0.6,0.9c-0.2,0.3-0.4,0.5-0.5,0.7
					c-0.4,0.7-0.9,1.8-1.3,2.7l-0.1,0.1c-0.2,0.5-0.5,1.1-0.8,1.7l0,0c-0.4,1.2-0.8,2.5-1.1,3.9
					C745.6,652.7,745.5,653.1,745.3,653.5z"/>
			</g>
			<g>
				<path class="st1" d="M730.6,422.9l46.1,51.2v6.7h-46.1V422.9 M734.5,397.3h-23.9v103.5h86.1v-34.3L734.5,397.3L734.5,397.3z"/>
				<path class="st1" d="M799.6,503.7h-92.1V394.3h28.2l63.8,71V503.7z M713.6,497.7h80.1v-30.2l-60.5-67.3h-19.6V497.7z
					 M779.6,483.7h-52.1V415l52.1,57.9V483.7z M733.6,477.7h40.1v-2.5l-40.1-44.6V477.7z"/>
			</g>
		</g>
	</g>
	<g>
		<path class="st1" d="M620.8,313.5v211.6H174.1V313.5H620.8 M640.8,293.5H154.1v251.6h486.7V293.5L640.8,293.5z"/>
		<path class="st1" d="M643.8,548.1H151.1V290.5h492.7V548.1z M157.1,542.1h480.7V296.5H157.1V542.1z M623.8,528.1H171.1V310.5
			h452.7V528.1z M177.1,522.1h440.7V316.5H177.1V522.1z"/>
	</g>
</g>
</svg>
