<?xml version="1.0" encoding="utf-8"?>
<!-- Generator: Adobe Illustrator 25.0.0, SVG Export Plug-In . SVG Version: 6.00 Build 0)  -->
<svg version="1.1" id="Layer_1" xmlns="http://www.w3.org/2000/svg" xmlns:xlink="http://www.w3.org/1999/xlink" x="0px" y="0px"
	 viewBox="0 0 1000 1000" style="enable-background:new 0 0 1000 1000;" xml:space="preserve">
<style type="text/css">
	.st0{fill:#ED1C24;}
	.st1{fill:#213047;}
</style>
<path class="st0" d="M500,20c64.8,0,127.7,12.7,186.8,37.7c57.2,24.2,108.5,58.8,152.6,102.9c44.1,44.1,78.7,95.4,102.9,152.6
	c25,59.2,37.7,122,37.7,186.8s-12.7,127.7-37.7,186.8c-24.2,57.2-58.8,108.5-102.9,152.6c-44.1,44.1-95.4,78.7-152.6,102.9
	c-59.2,25-122,37.7-186.8,37.7s-127.7-12.7-186.8-37.7c-57.2-24.2-108.5-58.8-152.6-102.9C116.5,795.3,81.9,744,57.7,686.8
	C32.7,627.7,20,564.8,20,500s12.7-127.7,37.7-186.8c24.2-57.2,58.8-108.5,102.9-152.6c44.1-44.1,95.4-78.7,152.6-102.9
	C372.3,32.7,435.2,20,500,20 M500,0C223.9,0,0,223.9,0,500s223.9,500,500,500s500-223.9,500-500S776.1,0,500,0L500,0z"/>
<g>
	<path class="st1" d="M437.7,703.3v62.5h24.9c0.4,0,0.8,0,1.1-0.1c4.5,0.6,8.6-2.6,9.2-7.1c0.3-2-0.2-4.1-1.4-5.7L437.7,703.3z"/>
	<path class="st1" d="M306.4,764.3c1.4,1,3,1.5,4.7,1.5c0.3,0,0.6-0.1,1-0.1c0.4,0.1,0.7,0.1,1.1,0.1h24.9v-62.4l-33.8,49.5
		C301.6,756.5,302.6,761.7,306.4,764.3z"/>
	<path class="st1" d="M765.7,358.4c0-0.3,0-0.6-0.1-0.9c0-0.3-0.1-0.5-0.2-0.7c-0.1-0.3-0.2-0.5-0.2-0.8c-0.1-0.2-0.2-0.5-0.3-0.7
		c-0.1-0.2-0.2-0.5-0.4-0.7c-0.2-0.2-0.3-0.5-0.5-0.7l-0.2-0.4l-40.2-47.7c-1.2-2.8-3.9-4.7-6.9-5l-306.3-66.3
		c-1.2-0.3-2.4-0.3-3.6,0c-0.8-0.1-1.5-0.2-2.3-0.2h-33.2c-0.8,0-1.6,0.1-2.3,0.2c-1.9-0.5-4-0.2-5.7,0.7l-124.6,66.4
		c-3.9,2.1-5.5,6.8-3.6,10.8c-0.5,1.6-0.8,3.2-0.8,4.8v33.2c0,9.2,7.4,16.6,16.6,16.6c0,0,0,0,0,0h103.8v398.6h66.4V367.1h191v54
		h-16.6c-4.6,0-8.3,3.7-8.3,8.3c0,1.5,0.4,3.1,1.2,4.4l23.7,38.4v32.8c-14.8,3.7-25.2,17.1-24.9,32.4c0,9.7,4,18.9,11.2,25.3
		l-52.5,29.1c-2.9,0.7-5.6,2.2-7.8,4.4l-0.6,0.3c-3.2,1.8-4.8,5.5-4,9.1c-0.1,0.8-0.2,1.6-0.2,2.4v33.2c0,9.2,7.4,16.6,16.6,16.6
		c0,0,0,0,0,0h132.9c9.2,0,16.6-7.4,16.6-16.6c0,0,0,0,0,0V608c0-0.8-0.1-1.6-0.2-2.4c0.8-3.6-0.8-7.3-4-9.1l-0.6-0.3
		c-2.2-2.1-4.9-3.6-7.8-4.4l-49.5-27.4c2.5-1.8,4.6-4,6.5-6.4c2.8-3.7,2-8.9-1.6-11.6s-8.9-2-11.6,1.6c-2.7,3.7-7,6-11.5,6
		c-9.2-0.9-15.9-9.1-14.9-18.3c0.8-7.9,7-14.2,14.9-14.9c0.3,0,0.5,0,0.8-0.1c0.3,0.1,0.5,0.1,0.8,0.1c4.6,0,8.3-3.7,8.3-8.3v-38.1
		l23.8-40.8c1.5-2.6,1.5-5.8,0-8.3c-1.5-2.6-4.2-4.2-7.2-4.2h-16.6v-54h128.7c0.5,0,1,0,1.5-0.2c0.2,0,0.4-0.1,0.5-0.1
		c0.3-0.1,0.6-0.2,1-0.3c0.2-0.1,0.4-0.2,0.6-0.3c0.3-0.1,0.5-0.3,0.8-0.4c0.2-0.1,0.4-0.2,0.5-0.4c0.2-0.1,0.3-0.2,0.4-0.3l0.2-0.2
		c0.2-0.2,0.4-0.4,0.6-0.6c0.2-0.2,0.4-0.4,0.5-0.6c0.2-0.2,0.3-0.4,0.5-0.7c0.1-0.2,0.2-0.5,0.4-0.7c0.1-0.2,0.2-0.5,0.3-0.7
		c0.1-0.2,0.2-0.5,0.2-0.8l0.1-0.7c0-0.3,0.1-0.6,0.1-0.9c0-0.1,0-0.2,0-0.3S765.7,358.6,765.7,358.4z M250.9,350.5v-33.2h27.9
		l-27.7,33.2H250.9z M296.5,350.5h-23.8l23.8-28.6V350.5z M313.2,350.5V322l23.8,28.6H313.2z M354.7,345.9l-23.8-28.6h23.8V345.9z
		 M354.7,300.7h-78.9l78.9-42.1V300.7z M371.3,273.3l23.5,27.4h-23.5V273.3z M396.2,333.9c0,4.6-3.7,8.3-8.3,8.3
		c-4.6,0-8.3-3.7-8.3-8.3c0-4.6,3.7-8.3,8.3-8.3C392.5,325.6,396.2,329.3,396.2,333.9z M371.3,367.1h23.5l-23.5,27.4V367.1z
		 M371.3,439.4l23.5,27.4h-23.5V439.4z M371.3,483.4h19.9l-19.9,23.2V483.4z M371.3,551.5l27,31.5h-27V551.5z M371.3,599.7h23.5
		L371.3,627V599.7z M371.3,671.9l23.5,27.4h-23.5V671.9z M404.5,749.1h-33.2v-33.2h33.2V749.1z M404.5,685.1L381,657.8h23.5V685.1z
		 M404.5,641.2H381l23.5-27.4V641.2z M404.5,564.7l-19.9-23.2h19.9V564.7z M404.5,524.9h-27l27-31.5V524.9z M404.5,452.6L381,425.3
		h23.5V452.6z M404.5,408.7H381l23.5-27.4V408.7z M404.5,286.5l-30.6-35.7h30.6V286.5z M616.3,571.8l35.2,19.6h-70.4L616.3,571.8z
		 M421.1,253.8l216.7,46.9H421.1V253.8z M421.1,317.3h23.8l-23.8,28.6V317.3z M462.6,350.5h-23.8l23.8-28.6V350.5z M479.2,350.5V322
		l23.8,28.6H479.2z M524.9,350.5h-0.2L497,317.3h27.9V350.5z M541.5,317.3h23.8l-23.8,28.6V317.3z M583,350.5h-23.8L583,322V350.5z
		 M599.7,350.5V322l23.8,28.6H599.7z M641.2,345.9l-23.8-28.6h23.8V345.9z M657.8,317.3h23.8l-23.8,28.6V317.3z M699.3,350.5h-23.8
		l23.8-28.6V350.5z M715.9,350.5v-28.1l23.7,28.1H715.9z"/>
</g>
</svg>
