<?xml version="1.0" encoding="utf-8"?>
<!-- Generator: Adobe Illustrator 25.0.0, SVG Export Plug-In . SVG Version: 6.00 Build 0)  -->
<svg version="1.1" id="Layer_1" xmlns="http://www.w3.org/2000/svg" xmlns:xlink="http://www.w3.org/1999/xlink" x="0px" y="0px"
	 viewBox="0 0 1000 1000" style="enable-background:new 0 0 1000 1000;" xml:space="preserve">
<style type="text/css">
	.st0{fill:#ED1C24;}
	.st1{fill:#213047;}
</style>
<path class="st0" d="M500,20c64.8,0,127.7,12.7,186.8,37.7c57.2,24.2,108.5,58.8,152.6,102.9c44.1,44.1,78.7,95.4,102.9,152.6
	c25,59.2,37.7,122,37.7,186.8s-12.7,127.7-37.7,186.8c-24.2,57.2-58.8,108.5-102.9,152.6c-44.1,44.1-95.4,78.7-152.6,102.9
	c-59.2,25-122,37.7-186.8,37.7s-127.7-12.7-186.8-37.7c-57.2-24.2-108.5-58.8-152.6-102.9C116.5,795.3,81.9,744,57.7,686.8
	C32.7,627.7,20,564.8,20,500s12.7-127.7,37.7-186.8c24.2-57.2,58.8-108.5,102.9-152.6c44.1-44.1,95.4-78.7,152.6-102.9
	C372.3,32.7,435.2,20,500,20 M500,0C223.9,0,0,223.9,0,500s223.9,500,500,500s500-223.9,500-500S776.1,0,500,0L500,0z"/>
<g>
	<rect x="491.1" y="738.2" class="st1" width="19.8" height="19.8"/>
	
		<rect x="665.8" y="665.8" transform="matrix(0.7071 -0.7071 0.7071 0.7071 -279.8757 675.6944)" class="st1" width="19.8" height="19.8"/>
	<rect x="738.2" y="491.1" class="st1" width="19.8" height="19.8"/>
	<path class="st1" d="M787.6,431.8h-70.1c-3.8-12.1-8.7-23.8-14.5-35l49.5-49.5c3.9-3.9,3.9-10.1,0-14l-41.9-41.9
		c-114.7-116.9-302.4-118.7-419.3-4s-118.7,302.4-4,419.3c1.3,1.3,2.6,2.7,4,4l41.9,41.9c3.9,3.9,10.1,3.9,14,0l49.5-49.5
		c11.2,5.8,23,10.6,35,14.5v70.1c0,5.5,4.4,9.9,9.9,9.9h118.6c5.5,0,9.9-4.4,9.9-9.9v-70.1c12.1-3.8,23.8-8.7,35-14.5l49.5,49.5
		c3.9,3.9,10.1,3.9,14,0l83.9-83.9c3.9-3.9,3.9-10.1,0-14L703,605.2c5.8-11.2,10.7-23,14.5-35h70.1c5.5,0,9.9-4.4,9.9-9.9V441.7
		C797.5,436.2,793,431.8,787.6,431.8z M305.3,305.3c105.3-105.4,275.2-108.4,384.2-6.8l-14,14c-104.3-96.2-266.8-89.7-363.1,14.6
		c-90.8,98.4-90.8,250.1,0,348.5l-14,14C196.9,580.5,200,410.6,305.3,305.3z M584.8,417.1c45.9,46.7,45.3,121.8-1.4,167.7
		c-46.2,45.4-120.2,45.4-166.3,0c-3.9-3.9-10.1-3.9-14,0l-76.7,76.7c-88.7-96.4-82.5-246.4,13.9-335.1c90.8-83.6,230.5-83.6,321.2,0
		l-76.7,76.7C581,407,581,413.3,584.8,417.1C584.8,417.1,584.8,417.1,584.8,417.1z M777.7,550.4h-67.6c-4.4,0-8.3,3-9.5,7.2
		c-4.3,15.5-10.5,30.4-18.4,44.5c-2.2,3.9-1.5,8.7,1.6,11.9l47.7,47.7l-69.9,69.9L614,683.8c-3.1-3.2-8-3.8-11.9-1.6
		c-14,7.9-29,14.1-44.5,18.4c-4.3,1.2-7.2,5.1-7.2,9.5v67.6h-98.8v-67.6c0-4.4-3-8.3-7.2-9.5c-15.5-4.3-30.4-10.5-44.5-18.4
		c-3.9-2.2-8.7-1.5-11.9,1.6l-47.7,47.7l-27.9-27.9l98.1-98.1c57.8,50,145.1,43.7,195.2-14c45-52,45-129.1,0-181.1l98.1-98.1
		l27.9,27.9L683.9,388c-3.2,3.1-3.8,8-1.6,11.9c7.9,14,14.1,29,18.4,44.5c1.2,4.3,5.1,7.2,9.5,7.2h67.6V550.4z"/>
	<path class="st1" d="M510.9,462.9V352.7c0-5.5-4.4-9.9-9.9-9.9s-9.9,4.4-9.9,9.9v110.1c-13.8,3.6-24.6,14.4-28.2,28.2h-70.6
		c-5.5,0-9.9,4.4-9.9,9.9s4.4,9.9,9.9,9.9h70.6c5.4,21.1,26.9,33.8,48,28.4s33.8-26.9,28.4-48C535.7,477.3,524.8,466.4,510.9,462.9z
		 M501,520.8c-10.9,0-19.8-8.8-19.8-19.8s8.8-19.8,19.8-19.8s19.8,8.8,19.8,19.8S511.9,520.8,501,520.8z"/>
	<path class="st1" d="M501,313.2c-5.5,0-9.9-4.4-9.9-9.9v-19.8c0-5.5,4.4-9.9,9.9-9.9s9.9,4.4,9.9,9.9v19.8
		C510.9,308.8,506.5,313.2,501,313.2z"/>
	<path class="st1" d="M599.8,339.7c-5.5,0-9.9-4.4-9.9-9.9c0-1.7,0.5-3.4,1.3-4.9l9.9-17.1c2.8-4.7,8.8-6.3,13.5-3.5
		c4.7,2.7,6.3,8.7,3.6,13.4l-9.9,17.1C606.6,337.8,603.4,339.7,599.8,339.7z"/>
	<path class="st1" d="M402.2,339.7c-3.5,0-6.8-1.9-8.6-4.9l-9.9-17.1c-2.7-4.7-1-10.8,3.7-13.5c4.7-2.7,10.7-1.1,13.4,3.6l9.9,17.1
		c2.7,4.7,1.1,10.8-3.6,13.5C405.6,339.2,403.9,339.7,402.2,339.7z"/>
	<path class="st1" d="M329.8,412c-1.7,0-3.4-0.5-4.9-1.3l-17.1-9.9c-4.7-2.8-6.3-8.8-3.5-13.5c2.7-4.7,8.7-6.3,13.4-3.6l17.1,9.9
		c4.7,2.7,6.3,8.8,3.6,13.5C336.6,410.2,333.4,412,329.8,412z"/>
	<path class="st1" d="M303.3,510.9h-19.8c-5.5,0-9.9-4.4-9.9-9.9s4.4-9.9,9.9-9.9h19.8c5.5,0,9.9,4.4,9.9,9.9
		S308.8,510.9,303.3,510.9z"/>
	<path class="st1" d="M312.7,619.6c-5.5,0-9.9-4.4-9.9-9.9c0-3.5,1.9-6.8,4.9-8.6l17.1-9.9c4.7-2.8,10.8-1.2,13.5,3.5
		c2.8,4.7,1.2,10.8-3.5,13.5c0,0-0.1,0-0.1,0.1l-17.1,9.9C316.2,619.1,314.4,619.6,312.7,619.6z"/>
	<path class="st1" d="M501,599.8c-26.2,0.1-51.4-10.4-69.8-29c-3.9-3.8-4-10.1-0.2-14s10.1-4,14-0.2c0.1,0.1,0.2,0.2,0.2,0.2
		c30.5,31.2,80.5,31.7,111.7,1.2c31.2-30.5,31.7-80.5,1.2-111.7c-0.4-0.4-0.8-0.8-1.2-1.2c-3.9-3.8-4-10-0.3-14c3.8-3.9,10-4,14-0.3
		c0.1,0.1,0.2,0.2,0.2,0.2c38.6,38.6,38.5,101.2-0.1,139.8C552.3,589.4,527.2,599.8,501,599.8z"/>
</g>
</svg>
