<svg xmlns="http://www.w3.org/2000/svg" viewBox="0 0 624.99 89.2"><defs><style>.cls-1,.cls-4{fill:#2b3179;}.cls-1,.cls-5{stroke:#2b3179;}.cls-1,.cls-2,.cls-3,.cls-5{stroke-miterlimit:10;}.cls-1{stroke-width:1.1px;}.cls-2{fill:#ed2024;stroke-width:1.05px;}.cls-2,.cls-3{stroke:#ed2024;}.cls-3,.cls-5{fill:none;}.cls-3{stroke-linecap:round;stroke-width:2.97px;}.cls-5{stroke-width:0.82px;}</style></defs><g id="Layer_2" data-name="Layer 2"><g id="Layer_1-2" data-name="Layer 1"><path class="cls-1" d="M155.59,36.29c-5.08-4.56-6.34-10.53-6.34-15.51a21,21,0,0,1,5.87-14.31c3.15-3.14,7.91-5.6,16-5.6a44.08,44.08,0,0,1,7.6.63,45.78,45.78,0,0,0,5.35.78c.57.05.68.26.68.58s-.16,1.05-.26,2.93c-.11,1.73-.11,4.61-.16,5.4s-.16,1.1-.47,1.1-.42-.37-.42-1.1a7.29,7.29,0,0,0-2.2-5.35c-1.84-1.57-5.87-3-10.48-3-7,0-10.22,2-12.06,3.82C154.86,10.35,154,15,154,20.36a18.92,18.92,0,0,0,18.92,19.18c3.92,0,7-.47,9.11-2.62a10.06,10.06,0,0,0,1.94-4.4c.11-.58.21-.79.53-.79s.36.37.36.79a55.1,55.1,0,0,1-1.15,6.7c-.32,1-.42,1.1-1.36,1.52-2.1.84-6.08,1.21-9.43,1.21C165,42,159.73,40,155.59,36.29Z"/><path class="cls-1" d="M211.55.87c11.79,0,20.6,7.44,20.6,19.65,0,11.73-8.28,21.43-20.91,21.43-14.36,0-20.33-11.16-20.33-20.6C190.91,12.87,197.09.87,211.55.87ZM212.65,40c4.72,0,14.47-2.73,14.47-18,0-12.57-7.65-19.33-15.93-19.33-8.75,0-15.3,5.76-15.3,17.24C195.89,32.1,203.22,40,212.65,40Z"/><path class="cls-1" d="M244.67,34.09c.1,4.3.63,5.66,2,6.08a11.58,11.58,0,0,0,2.62.31c.26,0,.42.11.42.32s-.31.41-.94.41c-3,0-5.09-.15-5.56-.15s-2.67.15-5,.15c-.52,0-.84-.05-.84-.41,0-.21.16-.32.42-.32a7.54,7.54,0,0,0,2.15-.31c1.31-.37,1.57-1.89,1.57-6.66l.06-30c0-2.05.15-2.62.57-2.62S243.46,2,244,2.54c.78.89,8.59,9.33,16.66,18,5.19,5.55,10.9,11.94,12.57,13.67l-.57-26.62c0-3.4-.42-4.55-2-5A14,14,0,0,0,268,2.33c-.37,0-.42-.15-.42-.36s.42-.37,1.05-.37c2.35,0,4.87.16,5.45.16s2.3-.16,4.45-.16c.58,0,.94,0,.94.37s-.21.36-.57.36a4.53,4.53,0,0,0-1.26.16c-1.73.37-1.94,1.52-1.94,4.66l-.11,30.71c0,3.46-.1,3.72-.47,3.72s-1-.58-3.82-3.35c-.58-.53-8.12-8.23-13.68-14.2-6.08-6.55-12-13.15-13.67-15Z"/><path class="cls-1" d="M289.52,40.53c-.73-.36-.79-.57-.79-2,0-2.62.21-4.71.26-5.55.06-.58.16-.84.42-.84s.37.16.37.58a9,9,0,0,0,.16,1.93c.78,3.88,4.24,5.35,7.75,5.35,5,0,7.5-3.62,7.5-7,0-3.62-1.52-5.71-6-9.43l-2.36-1.94C291.25,17.11,290,13.86,290,10.3c0-5.61,4.19-9.43,10.85-9.43a20.57,20.57,0,0,1,4.87.52,8.42,8.42,0,0,0,1.83.26c.42,0,.53.11.53.37s-.21,2-.21,5.55c0,.84-.11,1.21-.37,1.21s-.37-.26-.42-.68a9.21,9.21,0,0,0-.68-2.62c-.31-.58-1.73-2.78-6.55-2.78-3.61,0-6.44,2.25-6.44,6.08,0,3,1.36,4.87,6.39,8.8l1.47,1.15c6.18,4.88,7.65,8.13,7.65,12.32a10.86,10.86,0,0,1-4.46,8.7,13.78,13.78,0,0,1-7.91,2.2A15.88,15.88,0,0,1,289.52,40.53Z"/><path class="cls-1" d="M333.9,26c0,5,0,9.17.26,11.37.16,1.52.47,2.67,2,2.88a21.7,21.7,0,0,0,2.36.21c.32,0,.42.16.42.32s-.26.41-.84.41c-2.88,0-6.18-.15-6.44-.15s-3.57.15-5.14.15c-.57,0-.84-.1-.84-.41,0-.16.11-.32.42-.32a7.69,7.69,0,0,0,1.57-.21c1.05-.21,1.32-1.36,1.52-2.88.27-2.2.27-6.34.27-11.37V3.85L321.74,4c-3.25,0-4.5.42-5.34,1.68a8.38,8.38,0,0,0-.89,1.62c-.16.42-.32.52-.53.52s-.26-.15-.26-.47c0-.52,1-5,1.15-5.45s.32-1,.53-1a9.92,9.92,0,0,0,2.3.63c1.52.15,3.51.26,4.14.26h19.65a21.69,21.69,0,0,0,3.72-.26c.79-.11,1.26-.27,1.47-.27s.26.32.26.63c0,1.57-.16,5.19-.16,5.77s-.15.68-.36.68-.37-.16-.42-.89L347,6.84c-.16-1.57-1.42-2.78-6.45-2.88l-6.6-.11Z"/><path class="cls-1" d="M358.94,16.8c0-8.18,0-9.65-.1-11.32s-.53-2.62-2.26-3a10.07,10.07,0,0,0-1.78-.16c-.21,0-.42-.1-.42-.31s.27-.42.84-.42c2.36,0,5.66.16,5.92.16.58,0,4.56-.16,6.19-.16,3.3,0,6.81.32,9.59,2.31A9.16,9.16,0,0,1,380.53,11c0,3.88-1.62,7.76-6.34,12.11,4.3,5.5,7.86,10.16,10.9,13.41,2.83,3,5.08,3.56,6.39,3.77a12.41,12.41,0,0,0,2,.16c.26,0,.47.16.47.32,0,.31-.32.41-1.26.41H389c-2.93,0-4.24-.26-5.61-1-2.25-1.21-4.08-3.77-7.07-7.7-2.2-2.89-4.66-6.4-5.71-7.76a.84.84,0,0,0-.68-.31l-6.45-.11c-.26,0-.37.16-.37.42V26c0,5,0,9.17.27,11.37.15,1.52.47,2.67,2,2.88a21.49,21.49,0,0,0,2.36.21c.31,0,.42.16.42.32s-.26.41-.84.41c-2.88,0-6.18-.15-6.45-.15-.05,0-3.35.15-4.92.15-.58,0-.84-.1-.84-.41,0-.16.11-.32.42-.32a7.69,7.69,0,0,0,1.57-.21c1-.21,1.31-1.36,1.52-2.88.26-2.2.26-6.34.26-11.37Zm4.19,4.55a.68.68,0,0,0,.37.63c.79.48,3.2.84,5.5.84a6.75,6.75,0,0,0,3.93-1c1.84-1.26,3.2-4.09,3.2-8.07,0-6.55-3.46-10.48-9.06-10.48a15.81,15.81,0,0,0-3.52.31.65.65,0,0,0-.42.63Z"/><path class="cls-1" d="M395.41,16.8c0-8.18,0-9.65-.1-11.32s-.53-2.62-2.26-3a10.25,10.25,0,0,0-1.78-.16c-.21,0-.42-.1-.42-.31s.26-.42.84-.42c2.36,0,5.55.16,6,.16s3.61-.16,5.18-.16c.58,0,.84.11.84.42s-.21.31-.42.31a8.52,8.52,0,0,0-1.31.16c-1.41.21-1.83,1.15-1.94,3-.1,1.67-.1,3.14-.1,11.32v7.33c0,7.55,1.68,10.8,3.93,12.94A10.27,10.27,0,0,0,411.81,40,11,11,0,0,0,420,36.18c2.41-3,3-7.44,3-12.83V16.8c0-8.18,0-9.65-.11-11.32s-.52-2.62-2.25-3a10.25,10.25,0,0,0-1.78-.16c-.21,0-.42-.1-.42-.31s.26-.42.84-.42c2.35,0,5.24.16,5.55.16s2.83-.16,4.4-.16c.58,0,.84.11.84.42s-.21.31-.42.31a8.52,8.52,0,0,0-1.31.16c-1.41.32-1.83,1.15-1.94,3-.1,1.67-.1,3.14-.1,11.32v5.6c0,5.66-.63,12-4.82,15.67A15.37,15.37,0,0,1,410.76,42c-1.78,0-7.07-.21-10.79-3.72-2.57-2.47-4.56-6.13-4.56-13.78Z"/><path class="cls-1" d="M442.3,36.29C437.22,31.73,436,25.76,436,20.78a21,21,0,0,1,5.87-14.31c3.15-3.14,7.92-5.6,16-5.6a44,44,0,0,1,7.59.63,45.78,45.78,0,0,0,5.35.78c.57.05.68.26.68.58s-.16,1.05-.26,2.93c-.11,1.73-.11,4.61-.16,5.4s-.16,1.1-.47,1.1-.42-.37-.42-1.1a7.29,7.29,0,0,0-2.2-5.35c-1.84-1.57-5.87-3-10.48-3-7,0-10.22,2-12.05,3.82-3.83,3.67-4.72,8.33-4.72,13.68A18.92,18.92,0,0,0,459.6,39.54c3.93,0,7-.47,9.11-2.62a10.06,10.06,0,0,0,1.94-4.4c.11-.58.21-.79.53-.79s.36.37.36.79a55.1,55.1,0,0,1-1.15,6.7c-.31,1-.42,1.1-1.36,1.52-2.1.84-6.08,1.21-9.43,1.21C451.74,42,446.44,40,442.3,36.29Z"/><path class="cls-1" d="M495,26c0,5,0,9.17.26,11.37.16,1.52.47,2.67,2,2.88a21.7,21.7,0,0,0,2.36.21c.31,0,.42.16.42.32s-.26.41-.84.41c-2.88,0-6.18-.15-6.44-.15s-3.57.15-5.14.15c-.57,0-.84-.1-.84-.41,0-.16.11-.32.42-.32a7.69,7.69,0,0,0,1.57-.21c1.05-.21,1.31-1.36,1.52-2.88.27-2.2.27-6.34.27-11.37V3.85L482.86,4c-3.25,0-4.51.42-5.34,1.68a9.3,9.3,0,0,0-.9,1.62c-.15.42-.31.52-.52.52s-.26-.15-.26-.47c0-.52,1.05-5,1.15-5.45s.32-1,.53-1a9.92,9.92,0,0,0,2.3.63c1.52.15,3.51.26,4.14.26h19.65a21.69,21.69,0,0,0,3.72-.26c.79-.11,1.26-.27,1.47-.27s.26.32.26.63c0,1.57-.16,5.19-.16,5.77s-.15.68-.36.68-.37-.16-.42-.89l-.06-.58c-.15-1.57-1.41-2.78-6.44-2.88L495,3.85Z"/><path class="cls-1" d="M524.46,26c0,5,0,9.17.26,11.37.16,1.52.48,2.67,2,2.88a21.28,21.28,0,0,0,2.36.21c.31,0,.42.16.42.32s-.27.41-.84.41c-2.88,0-6.19-.15-6.45-.15s-3.56.15-5.13.15c-.58,0-.84-.1-.84-.41,0-.16.1-.32.42-.32a7.69,7.69,0,0,0,1.57-.21c1.05-.21,1.31-1.36,1.52-2.88.26-2.2.26-6.34.26-11.37V16.8c0-8.18,0-9.65-.1-11.32s-.63-2.67-1.79-2.94a7.18,7.18,0,0,0-1.62-.21c-.21,0-.42-.1-.42-.31s.26-.42.84-.42c1.73,0,5,.16,5.29.16s3.57-.16,5.14-.16c.57,0,.84.11.84.42s-.21.31-.42.31a8.25,8.25,0,0,0-1.31.16c-1.42.26-1.84,1.15-1.94,3-.11,1.67-.11,3.14-.11,11.32Z"/><path class="cls-1" d="M556.48.87c11.79,0,20.59,7.44,20.59,19.65,0,11.73-8.28,21.43-20.91,21.43-14.35,0-20.33-11.16-20.33-20.6C535.83,12.87,542,.87,556.48.87ZM557.58,40C562.29,40,572,37.23,572,22c0-12.57-7.65-19.33-15.93-19.33-8.75,0-15.3,5.76-15.3,17.24C540.81,32.1,548.15,40,557.58,40Z"/><path class="cls-1" d="M589.59,34.09c.11,4.3.63,5.66,2,6.08a11.58,11.58,0,0,0,2.62.31c.27,0,.42.11.42.32s-.31.41-.94.41c-3,0-5.08-.15-5.55-.15s-2.68.15-5,.15c-.53,0-.84-.05-.84-.41,0-.21.15-.32.42-.32a7.48,7.48,0,0,0,2.14-.31c1.32-.37,1.58-1.89,1.58-6.66l0-30c0-2.05.16-2.62.58-2.62s1.31,1.15,1.83,1.67c.79.89,8.59,9.33,16.66,18,5.19,5.55,10.9,11.94,12.58,13.67l-.58-26.62c-.05-3.4-.42-4.55-2-5A14.08,14.08,0,0,0,613,2.33c-.37,0-.42-.15-.42-.36s.42-.37,1.05-.37c2.36,0,4.87.16,5.45.16s2.3-.16,4.45-.16c.58,0,1,0,1,.37s-.21.36-.58.36a4.57,4.57,0,0,0-1.26.16c-1.73.37-1.94,1.52-1.94,4.66l-.1,30.71c0,3.46-.11,3.72-.47,3.72S619,41,616.26,38.23c-.57-.53-8.12-8.23-13.67-14.2-6.08-6.55-12-13.15-13.68-15Z"/><path class="cls-2" d="M13,7.89,23.52,35.62q2.3-5.31,6.56-16.3,4.2-10.73,5.13-13.76a8.94,8.94,0,0,0,.49-2A1.15,1.15,0,0,0,35,2.31,6.08,6.08,0,0,0,32.92,2c-.4,0-.6-.1-.6-.32s.4-.43,1.2-.43,2,0,3.28.08l2.07.08c2.22-.11,3.64-.16,4.26-.16s.93.12.93.37-.22.38-.65.38a4.74,4.74,0,0,0-2.63.65q-1.31.87-3,5.09Q36.91,10,31.66,22.46q-5.62,13.42-7,16.41l-1.53,3.25c-.3.57-.55.86-.77.86s-.56-.23-.82-.7a23.76,23.76,0,0,1-1.14-2.66L7,6.43a10,10,0,0,0-1.69-3A5.14,5.14,0,0,0,3,2.26,8.09,8.09,0,0,0,1,2C.67,2,.53,1.92.53,1.66S1,1.29,2,1.29s2.37,0,4,.08l2.43.08,2-.08c1.26-.06,2.29-.08,3.09-.08,1,0,1.47.12,1.47.37s-.22.37-.65.44h-1a2.94,2.94,0,0,0-1,.21,1.13,1.13,0,0,0-.71,1.09A25.39,25.39,0,0,0,13,7.89Z"/><path class="cls-2" d="M52.2,26.52V17q0-9.91-.11-11.7C52,3.56,51.2,2.53,49.74,2.21A8.94,8.94,0,0,0,47.88,2c-.29,0-.43-.1-.43-.32s.29-.43.87-.43c1,0,2.33,0,3.93.08l2.24.08c.33,0,1.17,0,2.52-.08s2.49-.08,3.44-.08q5.89,0,8.85,3a7.26,7.26,0,0,1,2.07,5.09,10.29,10.29,0,0,1-1.58,5.52,29,29,0,0,1-3.55,4.23A14.79,14.79,0,0,1,72.46,23a10.59,10.59,0,0,1,3.23,7.63,10.77,10.77,0,0,1-3.44,8.07q-3.89,3.74-10.49,3.74c-.48,0-1.79-.06-3.93-.17l-3.34-.16-2.15.08c-1.48.06-2.54.08-3.2.08s-.87-.14-.87-.43.17-.32.52-.32a8.87,8.87,0,0,0,1.55-.22c.84-.18,1.37-1.17,1.59-3Q52.2,36.16,52.2,26.52ZM56.57,3.67V18.18a.6.6,0,0,0,.38.6,21.81,21.81,0,0,0,3.33.21,14.65,14.65,0,0,0,3.28-.24,3.61,3.61,0,0,0,1.69-1.16,8,8,0,0,0,2-5.47,11.2,11.2,0,0,0-1.69-6.34,6.41,6.41,0,0,0-5.68-3,11.56,11.56,0,0,0-2.63.27C56.79,3.18,56.57,3.38,56.57,3.67Zm0,17.16v3.09q0,10.83,0,11.7A13.06,13.06,0,0,0,57,38.43a2.44,2.44,0,0,0,1.47,1.41,11.43,11.43,0,0,0,4.81.81,8,8,0,0,0,5-1.57Q71,37.09,71,33q0-7.25-5.3-10.83a10.67,10.67,0,0,0-4.53-1.57c-.55-.07-2-.1-4.26-.1C56.68,20.46,56.57,20.58,56.57,20.83Z"/><path class="cls-2" d="M108,43.26c-8.61.25-13.53-2.24-17.92-6.15s-6.58-9.25-6.58-16a20.5,20.5,0,0,1,1.26-6.93,20.17,20.17,0,0,1,4.87-7.85Q95.5.53,106.34.53a43.75,43.75,0,0,1,7.94.65,49.84,49.84,0,0,0,5.59.81c.48,0,.72.23.72.6,0,.1-.06.45-.16,1a19.38,19.38,0,0,0-.23,2c0,1.59-.09,3.45-.16,5.58,0,.75-.2,1.13-.49,1.13s-.44-.38-.44-1.13a6.85,6.85,0,0,0-2.29-5.53q-3.66-3.09-10.93-3.08-8.42,0-12.56,4-4.92,4.71-4.92,14.13a19.41,19.41,0,0,0,5.47,13.81,18.87,18.87,0,0,0,14.25,6,17.23,17.23,0,0,0,7.36-1.67c4.1-2.21,4.74-3.53,5.43-3.21s0,2.62-1.06,3.5C118.41,40.35,115.62,43,108,43.26Z"/><line class="cls-3" x1="134.81" y1="1.84" x2="134.81" y2="41.85"/><path class="cls-4" d="M200,75.84c0-4.38,0-5.17-.06-6.07s-.28-1.4-1.21-1.6a5.8,5.8,0,0,0-.95-.08c-.11,0-.23-.06-.23-.17s.14-.23.45-.23c1.27,0,2.95.09,3.18.09.62,0,2.25-.09,3.54-.09,3.51,0,4.78,1.19,5.23,1.61a4.86,4.86,0,0,1,1.4,3.34c0,4-2.92,6.69-6.91,6.69a3.89,3.89,0,0,1-.59,0c-.14,0-.31,0-.31-.19s.17-.26.76-.26a4.66,4.66,0,0,0,4.86-4.58,6,6,0,0,0-1.57-4.33,4.91,4.91,0,0,0-3.85-1.4,3.27,3.27,0,0,0-1.21.17c-.17.05-.23.25-.23.53V80.79c0,2.7,0,4.92.14,6.1.09.82.26,1.43,1.1,1.55.39,0,1,.11,1.27.11s.22.08.22.17-.14.22-.45.22c-1.55,0-3.32-.08-3.46-.08s-1.85.08-2.69.08c-.31,0-.45,0-.45-.22s.05-.17.22-.17a4.83,4.83,0,0,0,.84-.11c.57-.12.71-.73.82-1.55.14-1.18.14-3.4.14-6.1Z"/><path class="cls-4" d="M234.62,80.79c0,2.7,0,4.92.14,6.1.08.82.25,1.43,1.09,1.55.4,0,1,.11,1.27.11s.22.08.22.17-.14.22-.45.22c-1.54,0-3.31-.08-3.45-.08s-1.91.08-2.76.08c-.31,0-.45,0-.45-.22s.06-.17.23-.17a4.83,4.83,0,0,0,.84-.11c.56-.12.7-.73.82-1.55.14-1.18.14-3.4.14-6.1v-3a.17.17,0,0,0-.17-.17H220.17a.15.15,0,0,0-.17.17v3c0,2.7,0,4.92.14,6.1.09.82.25,1.43,1.1,1.55.39,0,1,.11,1.26.11s.23.08.23.17-.14.22-.45.22c-1.55,0-3.32-.08-3.46-.08s-1.91.08-2.75.08c-.31,0-.45,0-.45-.22s0-.17.22-.17a4.83,4.83,0,0,0,.84-.11c.57-.12.71-.73.82-1.55.14-1.18.14-3.4.14-6.1v-5c0-4.38,0-5.17-.06-6.07s-.28-1.4-1.2-1.6a6,6,0,0,0-1-.08c-.11,0-.22-.06-.22-.17s.14-.23.44-.23c1.27,0,3,.09,3.18.09s1.91-.09,2.76-.09c.3,0,.45.06.45.23s-.12.17-.23.17a4.65,4.65,0,0,0-.7.08c-.76.14-1,.62-1,1.6s-.06,1.69-.06,6.07v.6c0,.14.09.16.17.16h11.92c.08,0,.17,0,.17-.16v-.6c0-4.38,0-5.17-.06-6.07s-.28-1.4-1.21-1.6a5.8,5.8,0,0,0-1-.08c-.12,0-.23-.06-.23-.17s.14-.23.45-.23c1.27,0,3,.09,3.18.09s1.91-.09,2.75-.09c.31,0,.45.06.45.23s-.11.17-.22.17a4.89,4.89,0,0,0-.71.08c-.76.14-1,.62-1,1.6s0,1.69,0,6.07Z"/><path class="cls-4" d="M247,80.79c0,2.7,0,4.92.14,6.1.09.82.25,1.43,1.1,1.55.39,0,1,.11,1.26.11s.23.08.23.17-.14.22-.45.22c-1.55,0-3.32-.08-3.46-.08s-1.91.08-2.75.08c-.31,0-.45,0-.45-.22s.05-.17.22-.17a4.83,4.83,0,0,0,.84-.11c.57-.12.71-.73.82-1.55.14-1.18.14-3.4.14-6.1v-5c0-4.38,0-5.17-.06-6.07s-.33-1.43-.95-1.57a4,4,0,0,0-.87-.11c-.12,0-.23-.06-.23-.17s.14-.23.45-.23c.93,0,2.7.09,2.84.09s1.91-.09,2.76-.09c.3,0,.45.06.45.23s-.12.17-.23.17a4.65,4.65,0,0,0-.7.08c-.76.14-1,.62-1,1.6s-.06,1.69-.06,6.07Z"/><path class="cls-4" d="M259.35,80.85c0,4.13.11,5.93.62,6.43s1.18.65,3.37.65c1.49,0,2.72,0,3.4-.84a3.91,3.91,0,0,0,.73-1.69c0-.22.08-.36.25-.36s.17.11.17.42a17.37,17.37,0,0,1-.42,2.81c-.2.65-.28.76-1.77.76-2,0-3.49-.06-4.67-.09s-2-.08-2.86-.08c-.12,0-.59,0-1.16,0s-1.18,0-1.6,0-.45,0-.45-.22.06-.17.23-.17a4.83,4.83,0,0,0,.84-.11c.56-.12.7-.73.82-1.55.14-1.18.14-3.4.14-6.1v-5c0-4.38,0-5.17-.06-6.07s-.28-1.4-1.21-1.6a5.8,5.8,0,0,0-.95-.08c-.12,0-.23-.06-.23-.17s.14-.23.45-.23c1.27,0,3,.09,3.18.09s2.19-.09,3-.09c.31,0,.45.06.45.23s-.11.17-.22.17a7.58,7.58,0,0,0-.93.08c-.82.14-1,.62-1.1,1.6s0,1.69,0,6.07Z"/><path class="cls-4" d="M278,68.4c.34-.93.45-1.1.62-1.1s.28.14.62,1c.42,1.07,4.83,12.68,6.55,17,1,2.5,1.83,2.95,2.42,3.12a3.63,3.63,0,0,0,1.12.17c.17,0,.28,0,.28.17s-.25.22-.56.22-2.47,0-4.41,0c-.54,0-.85,0-.85-.2s.09-.17.2-.2.34-.31.17-.76l-2.62-6.91a.24.24,0,0,0-.25-.17h-6a.3.3,0,0,0-.28.23l-1.69,5a6,6,0,0,0-.39,1.88c0,.57.59.82,1.07.82h.28c.19,0,.28.06.28.17s-.17.22-.42.22c-.68,0-1.89-.08-2.2-.08s-1.85.08-3.17.08c-.37,0-.54,0-.54-.22s.12-.17.26-.17a7.94,7.94,0,0,0,.81-.06c1.29-.17,1.86-1.23,2.36-2.64Zm2.93,11.24c.14,0,.14-.09.11-.2l-2.67-7.59q-.21-.63-.42,0l-2.48,7.59c-.05.14,0,.2.09.2Z"/><path class="cls-4" d="M293.58,75.84c0-4.38,0-5.17-.06-6.07s-.28-1.4-1.21-1.6a5.8,5.8,0,0,0-.95-.08c-.12,0-.23-.06-.23-.17s.14-.23.45-.23c1.27,0,3,.09,3.18.09.34,0,2.11-.09,3.79-.09,2.79,0,7.93-.25,11.27,3.21A10,10,0,0,1,312.55,78a11.45,11.45,0,0,1-3,7.92c-1.2,1.27-3.73,3.24-8.51,3.24-1.21,0-2.7-.09-3.91-.17s-2.19-.17-2.33-.17-.54,0-1.13,0-1.2,0-1.63,0-.45,0-.45-.22.06-.17.23-.17a4.83,4.83,0,0,0,.84-.11c.56-.12.71-.73.82-1.55.14-1.18.14-3.4.14-6.1Zm2.36,3c0,3,0,5.57.05,6.1a6.34,6.34,0,0,0,.31,2.14c.37.53,1.47,1.12,4.78,1.12a9.46,9.46,0,0,0,6.69-2.61c1.46-1.44,2.25-4.14,2.25-6.72a10,10,0,0,0-2.7-7.08c-2.64-2.79-5.84-3.18-9.19-3.18a7.19,7.19,0,0,0-1.83.2.5.5,0,0,0-.33.56c0,1,0,3.82,0,6Z"/><path class="cls-4" d="M319.07,75.84c0-4.38,0-5.17-.06-6.07s-.28-1.4-1.21-1.6a5.8,5.8,0,0,0-.95-.08c-.11,0-.23-.06-.23-.17s.14-.23.45-.23c.65,0,1.41,0,2,0l1.15.06c.2,0,5.79,0,6.44,0a7.15,7.15,0,0,0,1.2-.14c.14,0,.26-.14.4-.14s.11.11.11.25-.14.54-.23,1.32c0,.28-.08,1.52-.14,1.86,0,.14-.08.31-.19.31s-.23-.14-.23-.37a3.06,3.06,0,0,0-.17-1c-.19-.45-.47-.79-2-1-.48-.06-3.54-.09-3.85-.09-.11,0-.17.09-.17.28v7.76c0,.2,0,.28.17.28.36,0,3.82,0,4.47-.06s1.06-.11,1.32-.39.31-.36.42-.36.14,0,.14.22-.14.65-.22,1.57c-.06.57-.12,1.61-.12,1.8s0,.54-.19.54-.2-.12-.2-.26a2.87,2.87,0,0,0-.11-.92c-.12-.4-.37-.87-1.46-1-.76-.08-3.55-.14-4-.14a.18.18,0,0,0-.2.2v2.47c0,1,0,4.22,0,4.81.08,1.94.51,2.3,3.26,2.3a8.05,8.05,0,0,0,2.7-.31c.73-.31,1.07-.87,1.26-2,.06-.31.12-.42.26-.42s.16.22.16.42a27.28,27.28,0,0,1-.36,2.73c-.2.73-.42.73-1.52.73-2.11,0-3.65-.06-4.75-.09s-1.77-.08-2.19-.08c-.06,0-.54,0-1.13,0s-1.2,0-1.63,0-.45,0-.45-.22.06-.17.23-.17a4.83,4.83,0,0,0,.84-.11c.56-.12.71-.73.82-1.55.14-1.18.14-3.4.14-6.1Z"/><path class="cls-4" d="M338.57,80.85c0,4.13.12,5.93.62,6.43s1.18.65,3.37.65c1.49,0,2.73,0,3.4-.84a3.93,3.93,0,0,0,.74-1.69c0-.22.08-.36.25-.36s.17.11.17.42a18.57,18.57,0,0,1-.42,2.81c-.2.65-.29.76-1.78.76-2,0-3.48-.06-4.66-.09s-2.05-.08-2.87-.08c-.11,0-.59,0-1.15,0s-1.18,0-1.6,0-.45,0-.45-.22.05-.17.22-.17a5,5,0,0,0,.85-.11c.56-.12.7-.73.81-1.55.14-1.18.14-3.4.14-6.1v-5c0-4.38,0-5.17,0-6.07s-.29-1.4-1.21-1.6a6,6,0,0,0-1-.08c-.11,0-.22-.06-.22-.17s.14-.23.45-.23c1.26,0,3,.09,3.17.09s2.19-.09,3-.09c.31,0,.45.06.45.23s-.11.17-.23.17a7.45,7.45,0,0,0-.92.08c-.82.14-1,.62-1.1,1.6s-.06,1.69-.06,6.07Z"/><path class="cls-4" d="M352.85,75.84c0-4.38,0-5.17-.06-6.07s-.28-1.4-1.21-1.6a5.8,5.8,0,0,0-.95-.08c-.11,0-.23-.06-.23-.17s.14-.23.45-.23c1.27,0,3,.09,3.18.09.62,0,2.25-.09,3.54-.09,3.51,0,4.78,1.19,5.23,1.61a4.86,4.86,0,0,1,1.4,3.34c0,4-2.92,6.69-6.91,6.69a3.89,3.89,0,0,1-.59,0c-.14,0-.31,0-.31-.19s.17-.26.76-.26A4.66,4.66,0,0,0,362,74.27a6,6,0,0,0-1.57-4.33,4.91,4.91,0,0,0-3.85-1.4,3.27,3.27,0,0,0-1.21.17c-.17.05-.23.25-.23.53V80.79c0,2.7,0,4.92.14,6.1.09.82.26,1.43,1.1,1.55.39,0,1,.11,1.27.11s.22.08.22.17-.14.22-.45.22c-1.55,0-3.32-.08-3.46-.08s-1.85.08-2.69.08c-.31,0-.45,0-.45-.22s.05-.17.22-.17a4.83,4.83,0,0,0,.84-.11c.57-.12.71-.73.82-1.55.14-1.18.14-3.4.14-6.1Z"/><path class="cls-4" d="M387.45,80.79c0,2.7,0,4.92.14,6.1.08.82.25,1.43,1.09,1.55.4,0,1,.11,1.27.11s.22.08.22.17-.14.22-.45.22c-1.54,0-3.31-.08-3.45-.08s-1.91.08-2.76.08c-.31,0-.45,0-.45-.22s.06-.17.23-.17a4.83,4.83,0,0,0,.84-.11c.56-.12.7-.73.82-1.55.14-1.18.14-3.4.14-6.1v-3a.17.17,0,0,0-.17-.17H373a.15.15,0,0,0-.17.17v3c0,2.7,0,4.92.14,6.1.09.82.26,1.43,1.1,1.55.39,0,1,.11,1.26.11s.23.08.23.17-.14.22-.45.22c-1.55,0-3.32-.08-3.46-.08s-1.91.08-2.75.08c-.31,0-.45,0-.45-.22s.05-.17.22-.17a5,5,0,0,0,.85-.11c.56-.12.7-.73.81-1.55.14-1.18.14-3.4.14-6.1v-5c0-4.38,0-5.17-.05-6.07s-.29-1.4-1.21-1.6a6,6,0,0,0-1-.08c-.11,0-.22-.06-.22-.17s.14-.23.45-.23c1.26,0,3,.09,3.17.09s1.91-.09,2.76-.09c.31,0,.45.06.45.23s-.12.17-.23.17a4.79,4.79,0,0,0-.7.08c-.76.14-1,.62-1,1.6s-.06,1.69-.06,6.07v.6c0,.14.09.16.17.16h11.92c.08,0,.17,0,.17-.16v-.6c0-4.38,0-5.17-.06-6.07s-.28-1.4-1.21-1.6a5.8,5.8,0,0,0-.95-.08c-.12,0-.23-.06-.23-.17s.14-.23.45-.23c1.27,0,3,.09,3.18.09s1.91-.09,2.75-.09c.31,0,.45.06.45.23s-.11.17-.22.17a4.89,4.89,0,0,0-.71.08c-.75.14-1,.62-1,1.6s-.05,1.69-.05,6.07Z"/><path class="cls-4" d="M399.81,80.79c0,2.7,0,4.92.14,6.1.09.82.26,1.43,1.1,1.55.39,0,1,.11,1.26.11s.23.08.23.17-.14.22-.45.22c-1.55,0-3.32-.08-3.46-.08s-1.91.08-2.75.08c-.31,0-.45,0-.45-.22s.05-.17.22-.17a5,5,0,0,0,.85-.11c.56-.12.7-.73.81-1.55.14-1.18.14-3.4.14-6.1v-5c0-4.38,0-5.17-.06-6.07s-.33-1.43-.95-1.57a4,4,0,0,0-.87-.11c-.11,0-.23-.06-.23-.17s.14-.23.45-.23c.93,0,2.7.09,2.84.09s1.91-.09,2.76-.09c.31,0,.45.06.45.23s-.12.17-.23.17a4.79,4.79,0,0,0-.7.08c-.76.14-1,.62-1,1.6s-.06,1.69-.06,6.07Z"/><path class="cls-4" d="M413.87,68.4c.33-.93.44-1.1.61-1.1s.28.14.62,1c.42,1.07,4.84,12.68,6.55,17,1,2.5,1.83,2.95,2.42,3.12a3.63,3.63,0,0,0,1.12.17c.17,0,.28,0,.28.17s-.25.22-.56.22-2.47,0-4.41,0c-.54,0-.85,0-.85-.2s.09-.17.2-.2.34-.31.17-.76l-2.61-6.91a.26.26,0,0,0-.26-.17h-6c-.14,0-.22.09-.28.23l-1.69,5a6,6,0,0,0-.39,1.88c0,.57.59.82,1.07.82h.28c.19,0,.28.06.28.17s-.17.22-.42.22c-.68,0-1.88-.08-2.19-.08s-1.86.08-3.18.08c-.37,0-.53,0-.53-.22s.11-.17.25-.17a7.94,7.94,0,0,0,.81-.06c1.3-.17,1.86-1.23,2.36-2.64Zm2.92,11.24c.14,0,.14-.09.11-.2l-2.67-7.59q-.21-.63-.42,0l-2.48,7.59c-.05.14,0,.2.09.2Z"/><line class="cls-5" x1="183.8" y1="78.97" x2="33.45" y2="78.97"/><line class="cls-5" x1="601.33" y1="79.47" x2="435.2" y2="79.47"/></g></g></svg>