<svg xmlns="http://www.w3.org/2000/svg" xmlns:xlink="http://www.w3.org/1999/xlink" viewBox="0 0 165.97 162.71"><defs><style>.cls-1{fill:none;}.cls-2{fill:#ed2024;}.cls-3{fill:url(#New_Gradient_Swatch_2);}.cls-4{fill:url(#New_Gradient_Swatch_2-2);}.cls-5{clip-path:url(#clip-path);}.cls-6,.cls-8{fill:#fff;}.cls-7{fill:#ed2224;}.cls-7,.cls-8{fill-rule:evenodd;}.cls-9{fill:url(#New_Gradient_Swatch_1);}</style><radialGradient id="New_Gradient_Swatch_2" cx="84.95" cy="105.35" fx="72.88429539638146" r="79.07" gradientTransform="matrix(-0.01, 1, -0.86, -0.01, 177.2, 21.62)" gradientUnits="userSpaceOnUse"><stop offset="0" stop-color="#2b3179"/><stop offset="0.53" stop-color="#292c70"/><stop offset="1" stop-color="#191a4c"/></radialGradient><radialGradient id="New_Gradient_Swatch_2-2" cx="91" cy="35.65" fx="91.00255992413076" r="77.38" gradientTransform="matrix(1, 0, 0, 1, 0, 0)" xlink:href="#New_Gradient_Swatch_2"/><clipPath id="clip-path"><path class="cls-1" d="M6.67,25.81c-.63,8-6.35,102.4,76.54,129.7a1,1,0,0,0,.62,0c5.54-1.79,83.83-28.88,75.75-129.73a1,1,0,0,0-.47-.78C153.22,21.33,87-17.74,7.21,25A1,1,0,0,0,6.67,25.81Z"/></clipPath><linearGradient id="New_Gradient_Swatch_1" x1="78.07" y1="97.02" x2="78.99" y2="111.14" gradientTransform="matrix(1.01, -0.09, 0, 0.99, 3.38, -20.26)" gradientUnits="userSpaceOnUse"><stop offset="0" stop-color="#b61f24"/><stop offset="1" stop-color="#ed2024"/></linearGradient></defs><g id="Layer_2" data-name="Layer 2"><g id="Layer_1-2" data-name="Layer 1"><path class="cls-2" d="M.56,21.48C55.64-7,110.49-7.28,165.12,21.5a1,1,0,0,1,.55.85c3.83,77.37-29.5,118.42-82.48,140.28a1,1,0,0,1-.74,0C32.2,144.54-.53,104.28,0,22.39A1,1,0,0,1,.56,21.48Z"/><path class="cls-3" d="M83.61,6.21V153.74l-1.71,1.2c-45.86-16.86-75.66-54-75.18-129a1,1,0,0,1,.55-.9Q45,5.45,82.59,5.19h1v1"/><path class="cls-4" d="M84.63,5.2Q121.91,5.5,159,25a1,1,0,0,1,.55.86C163.05,96.45,133,134.26,85,154.59a1,1,0,0,1-1.41-.93V5.18Z"/><g class="cls-5"><polygon class="cls-6" points="35.1 124.01 35.1 66.69 20.49 60.19 20.49 58.76 35.26 52.09 38.91 37.32 47 34.15 50.5 45.9 91.3 38.27 92.41 44.94 95.27 102.58 118.61 96.86 120.36 134.65 99.24 151.16 86.86 156.09 63.99 151.96 59.87 147.35 59.87 68.28 88.44 49.71 90.98 49.71 90.83 45.1 88.76 45.1 50.02 61.93 50.18 141 34.62 126.23 35.1 124.01"/><polygon class="cls-7" points="58.8 86.18 58.81 68.08 89.15 48.38 108.43 52.52 108.19 71.17 90.89 68.42 58.8 86.18"/><polygon class="cls-8" points="87.78 66.82 83.38 69.15 83.34 54.27 87.81 51.48 87.78 66.82 87.78 66.82"/><polygon class="cls-8" points="80.51 71.33 76.14 73.83 76.1 58.94 80.66 56.09 80.54 69.53 80.51 71.33"/><polygon class="cls-8" points="73.04 76.04 68.62 78.59 68.59 63.7 73.04 61.01 73.04 75.35 73.04 76.04"/><polygon class="cls-8" points="65.58 80.38 61.14 82.94 61.11 68.6 65.74 65.78 65.55 79.22 65.58 80.38"/><polygon class="cls-9" points="108.21 71.13 93.68 76.94 58.8 86.18 90.89 68.42 108.21 71.13"/><path class="cls-7" d="M48.73,44.87l-3.11,1.3-2.31-8.89L46.43,36l2.3,8.86ZM90.64,73.75l16.7,6.31-.59,17.24h0l7.35-1.92h0l4.35-1.14h0l18.3,7.71V155.6H59.05l-.27-69.7Zm-2.19,58.86-4.34.42v-15.1l4.34-.71v15.39Zm-7.35.72-4.34.42V119.13l4.34-.71v14.91Zm-7.35.72-4.35.42V120.33l4.35-.71v14.43Zm-7.35.71-4.35.43V121.54l4.35-.71v13.93Zm-4.35,3.8,4.35-.35v14.33H62.05v-14Zm7.35-.6,4.35-.35v14.93H69.4V138Zm7.36-.6L81.1,137v15.53H76.76V137.36Zm7.35-.6,4.34-.35v16.13H84.11V136.76Zm4.34-23.34-4.34.78V99.1L88.45,98v15.39Zm-7.35,1.32-4.34.78V100.9l4.34-1.07v14.91Zm-7.35,1.32-4.35.78V102.71l4.35-1.07v14.42Zm-7.35,1.32-4.35.78V104.51l4.35-1.07v13.94Zm22-23.15-4.34,1.14V80.26l4.34-1.42V94.23ZM81.1,96.15l-4.34,1.14V82.67l4.34-1.42v14.9Zm-7.35,1.93L69.4,99.22V85.08l4.35-1.42V98.08ZM66.4,100l-4.35,1.13V87.49l4.35-1.42V100Zm52.08,52.53V136.41l-4.35.35v15.78Zm-7.36,0V137l-4.34.35v15.18Zm-7.35,0V137.61l-4.34.35v14.58Zm-4.34-49.83v14.13l4.34-.78V101.64l-4.34,1.07Zm7.35-1.81v14.62l4.34-.78V99.83l-4.34,1.07Zm7.35-1.8v15.1l4.35-.78V98l-4.35,1.07Zm-14.7,21.23v14.14l4.34-.42V119.62l-4.34.71Zm7.35-1.2v14.62l4.34-.42V118.42l-4.34.71Zm7.35-1.2V133l4.35-.42V117.22l-4.35.71ZM34,56.74v8l-4.1-1.87L34,56.74Zm72.74-.87h0M93.41,60.06v-25L51.68,44.25,48.41,31.68h0L38.06,36,34.17,50.92,19.49,57v4.4L34,68.06h0V155.6H51.72V62.42L90.41,46.53V61ZM51.72,58.9V49.14L58,56.3l-6.25,2.6Zm-3-10.5V60.15l-3,1.25V49.63l3-1.23Zm0,15.25V78.49l-3-1.06V64.89l3-1.24Zm-6-12.79V62.65L37,65V53.19l5.69-2.33Zm0,15.26v8.41L37.89,68.1l4.82-2ZM37,152.54v-9.2l3,9.2ZM37,138v-8.56l3.24,8.33L37,138Zm0-14.59v-7.91l3.49,7.42-3.49.49Zm0-14.59v-7.69L40.77,108l-3.75.8Zm0-14.59V86.76l3.92,6.31L37,94.18Zm0-14.59V72l4.46,6L37,79.59ZM42.71,81v9.14l-4.65-7.5L42.71,81Zm0,14.93v9.21l-4.35-8,4.35-1.23Zm0,14.92v9.51l-4.07-8.64,4.07-.87Zm0,14.93v9.8l-3.62-9.29,3.62-.51Zm0,14.92V150.8l-3.27-9.89,3.27-.24Zm3,11.87v-11.9l3,.22v11.68Zm0-15V125.69l3,.42v11.62l-3-.22Zm0-15V110.73l3,.64v11.55l-3-.43Zm0-15V95.78l3,.85v11.48l-3-.64Zm0-15V80.82l3,1.06V93.3l-3-.85ZM62,54.62v-8l5.11,5.86L62,54.62Zm10.33-4.3V44.05l4,4.6-4,1.67Zm10-4.14V41.72h0L85.17,45l-2.85,1.18Zm3.51-5.1,2.31-.43v3.08l-2.31-2.65Zm-6.58,6.21L75.5,43l3.75-.69v5Zm-10,3L64.66,45l4.63-.86v6.17ZM59,46v6.76L53.89,47,59,46ZM40.51,38.48l2.3,8.85-5.15,2.15,2.85-11ZM27.08,61.61l-5-2.3,9-3.69-4,6Z"/></g><polygon class="cls-6" points="114.17 40.3 115.04 43.02 117.68 42.05 116.15 44.43 118.58 45.87 115.82 46.1 116.17 48.96 114.17 46.88 112.19 48.92 112.58 46.1 109.74 45.87 112.19 44.43 110.63 42.03 113.31 43.02 114.17 40.3"/><polygon class="cls-6" points="130.49 66.11 131.35 68.83 133.99 67.86 132.47 70.23 134.9 71.68 132.14 71.91 132.49 74.77 130.49 72.69 128.51 74.73 128.9 71.91 126.06 71.68 128.51 70.23 126.94 67.84 129.62 68.83 130.49 66.11"/><polygon class="cls-6" points="144.97 35.97 145.83 38.69 148.47 37.72 146.94 40.09 149.38 41.54 146.62 41.77 146.97 44.63 144.97 42.55 142.99 44.59 143.38 41.77 140.53 41.54 142.99 40.09 141.42 37.7 144.1 38.69 144.97 35.97"/><polygon class="cls-6" points="130.43 22.68 131.29 25.4 133.94 24.43 132.41 26.8 134.84 28.25 132.08 28.48 132.43 31.34 130.43 29.26 128.45 31.3 128.84 28.48 126 28.25 128.45 26.8 126.88 24.41 129.56 25.4 130.43 22.68"/><polygon class="cls-6" points="138.55 53.86 136.94 52.94 135.37 53.86 135.74 52.05 134.43 50.77 136.24 50.67 136.97 48.97 137.7 50.72 139.51 50.8 138.17 52.06 138.55 53.86"/></g></g></svg>