<svg xmlns="http://www.w3.org/2000/svg" viewBox="0 0 383.53 93.66"><defs><style>.cls-1{fill:#2b3179;}.cls-2{fill:#ed2024;}</style></defs><g id="Layer_2" data-name="Layer 2"><g id="Layer_1-2" data-name="Layer 1"><path class="cls-1" d="M170,21l-1.53-1.19c-5-3.93-6.41-5.8-6.41-8.68,0-3.43,2.46-5.73,6.12-5.73,4.4,0,5.86,1.8,6.29,2.58a9.35,9.35,0,0,1,.64,2.51c0,.4.15,1.21,1,1.21s.95-1.23.95-1.82c0-2.88.14-4.6.19-5.33,0-.22,0-.37,0-.43,0-.36-.15-1-1.12-1a8,8,0,0,1-1.76-.26,21.85,21.85,0,0,0-5.19-.56c-7.07,0-11.82,4.16-11.82,10.36,0,3.75,1.24,7.27,7.27,12.23l2.45,2c4.74,3.91,6,5.92,6,9.34s-2.47,6.65-7.2,6.65c-1.94,0-6.55-.49-7.48-5.09a8.51,8.51,0,0,1-.16-1.89c0-.29,0-1.17-.95-1.17s-1,1-1,1.41l-.05.65c-.08,1.1-.22,2.94-.22,5.14,0,1.5.05,2,1.13,2.58h0a16.86,16.86,0,0,0,7.53,1.53,14.85,14.85,0,0,0,8.54-2.39,11.84,11.84,0,0,0,4.86-9.49C178.16,29.92,176.82,26.38,170,21Z"/><path class="cls-1" d="M217.79,2.73a2.77,2.77,0,0,0-.59.1c-.24,0-.58.12-1,.19a21.93,21.93,0,0,1-3.76.26H192c-.66,0-2.73-.11-4.25-.27a4.76,4.76,0,0,1-1.7-.44,1.75,1.75,0,0,0-.74-.22c-.61,0-.85.72-1.06,1.35l0,.12c0,.05-1.22,5.1-1.22,5.79s.43,1.06.85,1.06A1.19,1.19,0,0,0,185,9.78a8,8,0,0,1,.87-1.59c.65-1,1.54-1.43,5.07-1.49l7.47-.1V29c0,5.08,0,9.47-.27,11.71-.21,1.56-.45,2.37-1.13,2.51a7.56,7.56,0,0,1-1.51.2.91.91,0,0,0-1,.9c0,.67.48,1,1.44,1,1.16,0,3.21-.08,4.43-.13l.89,0,.63,0c1.22.05,3.75.14,6.05.14,1.34,0,1.44-.76,1.44-1a.91.91,0,0,0-1-.9,22.51,22.51,0,0,1-2.37-.21c-1.07-.14-1.45-.72-1.63-2.49-.27-2.25-.27-6.64-.27-11.72V6.6l6.27.1c5.89.12,6,1.77,6.12,2.47l.06.59c0,.51.1,1.45,1,1.45.44,0,.95-.33.95-1.28,0-.22,0-.89.05-1.72,0-1.36.12-3.23.12-4.25C218.64,3.65,218.64,2.73,217.79,2.73Z"/><path class="cls-1" d="M261.48,3.11c-1.12,0-2.64.08-3.64.13l-.93,0-.75,0c-1.12,0-3.2-.14-5-.14-1,0-1.44.34-1.44,1a.94.94,0,0,0,1,.9,9.69,9.69,0,0,1,1.73.15c1.41.3,1.78.8,1.88,2.57s.11,3.25.11,11.7v6.79c0,6.46-.91,10.33-3,13a10.76,10.76,0,0,1-8.09,3.71c-3,0-5.29-.46-7.81-2.83-1.93-1.84-3.9-4.82-3.9-13V19.44c0-8.45,0-10,.11-11.7.11-2,.58-2.43,1.53-2.57A8,8,0,0,1,234.53,5a.93.93,0,0,0,1-.9c0-.67-.48-1-1.44-1s-2.78.07-4,.12l-1.34,0-1.13,0c-1.28-.05-3.42-.13-5.12-.13-1,0-1.44.34-1.44,1a.94.94,0,0,0,1,.9,9.69,9.69,0,0,1,1.73.15c1.41.3,1.78.8,1.88,2.57s.11,3.25.11,11.7v7.94c0,8.86,2.62,12.51,4.91,14.7,3.7,3.49,8.84,4,11.58,4a16.57,16.57,0,0,0,11.57-4.17c4.6-4.08,5.19-11,5.19-16.67V19.44c0-8.45,0-10,.11-11.7.11-1.94.55-2.35,1.54-2.57A7.45,7.45,0,0,1,261.91,5a.94.94,0,0,0,1-.9C262.92,3.45,262.43,3.11,261.48,3.11Z"/><path class="cls-1" d="M285.21,3.11h-1c-2.26,0-4.63.08-6,.13l-1.29,0-.71,0c-1.17,0-3.59-.14-5.43-.14-1,0-1.44.34-1.44,1a.93.93,0,0,0,1,.9,9.52,9.52,0,0,1,1.73.15c1.41.3,1.78.8,1.89,2.57S274,11,274,19.44V29c0,5.08,0,9.47-.27,11.71-.22,1.56-.45,2.37-1.14,2.51a7.39,7.39,0,0,1-1.5.2.92.92,0,0,0-1,.9c0,.67.49,1,1.44,1,.39,0,.87,0,1.39,0s1.19-.06,1.79-.06c1.13-.06,2-.06,2.15-.06l1.41.1c.8.06,1.86.15,3.06.23,3.11.21,5.67.32,7.59.32,7,0,12.86-2.22,16.88-6.42a23,23,0,0,0,6-15.72,19.9,19.9,0,0,0-5.43-14.2C300.14,3,290.81,3.08,285.21,3.11ZM279.7,18.57c0-4.1,0-9.72.06-11.57,0-.41.06-.46.33-.58a15.56,15.56,0,0,1,3.28-.32c7,0,12.65,1,17.35,6a19,19,0,0,1,5.06,13.3c0,5.15-1.64,10.09-4.18,12.58a17.74,17.74,0,0,1-12.53,4.88c-6.15,0-8.16-1-8.77-1.93-.16-.23-.38-1.07-.49-3.83-.05-1-.11-5.75-.11-11.76Z"/><path class="cls-1" d="M333.25,43.43a22.51,22.51,0,0,1-2.37-.21c-1.07-.14-1.45-.72-1.63-2.49C329,38.48,329,34.09,329,29V19.44c0-8.45,0-10,.11-11.7.11-2,.57-2.39,1.53-2.57A8,8,0,0,1,331.89,5a.93.93,0,0,0,1-.9c0-.67-.48-1-1.44-1-1.17,0-3.21.09-4.44.14l-.88,0-.84,0c-1.17,0-3.35-.14-4.65-.14-1,0-1.44.34-1.44,1a.93.93,0,0,0,1,.9,6.59,6.59,0,0,1,1.56.2c.77.17,1.3.67,1.41,2.52s.1,3.25.1,11.7V29c0,5.08,0,9.47-.26,11.71-.21,1.52-.45,2.37-1.14,2.51a7.39,7.39,0,0,1-1.5.2.92.92,0,0,0-1,.9c0,.67.49,1,1.44,1,1.17,0,3.22-.08,4.44-.13l.89,0,.63,0c1.21.05,3.74.14,6.05.14,1.34,0,1.44-.76,1.44-1A.91.91,0,0,0,333.25,43.43Z"/><path class="cls-1" d="M361.61,2.35c-16,0-22,13.39-22,21.82,0,10.56,6.77,21.93,21.65,21.93,12.89,0,22.25-9.59,22.25-22.8C383.53,10.77,374.72,2.35,361.61,2.35Zm15.56,22.47c0,17.2-12,18.07-14.42,18.07-9.9,0-16.82-8.32-16.82-20.24,0-10.84,5.72-17.31,15.3-17.31C368.91,5.34,377.17,11.44,377.17,24.82Z"/><path class="cls-2" d="M44.73,2.81c-.66,0-2.11.06-4.42.17L38.18,2.9c-1.37-.06-2.52-.09-3.42-.09-1.19,0-1.8.34-1.8,1,0,.21.09.88,1.17.88a5.71,5.71,0,0,1,2,.24c.12.05.37.15.37.73a9,9,0,0,1-.49,2c-.64,2.07-2.42,6.85-5.31,14.22-2.61,6.74-4.71,12-6.26,15.64L14,10a27.09,27.09,0,0,1-1.5-4.47A.63.63,0,0,1,13,4.92a2.13,2.13,0,0,1,.77-.17h1.11c1-.16,1.14-.69,1.14-1,0-.94-1.4-.94-2.08-.94-.83,0-1.89,0-3.22.09L8.65,3,6.14,2.9c-1.65-.06-3-.09-4.12-.09-.66,0-2,0-2,.94a.91.91,0,0,0,1,.94A7.48,7.48,0,0,1,3,4.9a4.78,4.78,0,0,1,2.08,1,9.91,9.91,0,0,1,1.64,3L20.6,43.31a20.58,20.58,0,0,0,1.22,2.82,1.57,1.57,0,0,0,1.33,1c.59,0,1-.64,1.28-1.21L26,42.56c1-2.07,3.45-7.8,7.31-17C36.94,17,39.08,11.84,39.68,10.3c1.4-3.49,2.36-4.66,2.91-5A4.35,4.35,0,0,1,45,4.69c1.14,0,1.23-.72,1.23-.94C46.24,3.32,46,2.81,44.73,2.81Z"/><path class="cls-2" d="M69.67,21.65a27.15,27.15,0,0,0,3.16-3.85,11.26,11.26,0,0,0,1.72-6,8.1,8.1,0,0,0-2.3-5.66c-2.14-2.19-5.36-3.31-9.57-3.31-1,0-2.19,0-3.59.09S56.84,3,56.51,3V3c-.41,0-1.11-.07-2.31-.11-1.67-.06-3.05-.09-4.09-.09-1.32,0-1.46.7-1.46,1a.88.88,0,0,0,1,.88,9.2,9.2,0,0,1,1.81.16c1.27.28,1.91,1.14,2,2.7.07,1.22.11,5.29.11,12.09v9.89c0,6.6-.09,10.68-.28,12.12-.13,1.1-.45,2.45-1.21,2.61a7.71,7.71,0,0,1-1.5.22c-1,0-1.09.73-1.09.88s.14,1,1.46,1q1,0,3.33-.09c1.14,0,1.82-.06,2.21-.12v0l3.43.17c2.27.11,3.61.17,4.11.17,4.69,0,8.48-1.36,11.25-4A11.73,11.73,0,0,0,79,33.74a11.59,11.59,0,0,0-3.5-8.3A16,16,0,0,0,69.67,21.65ZM62.06,5.48a6.06,6.06,0,0,1,5.43,2.84,11.09,11.09,0,0,1,1.67,6.27,7.73,7.73,0,0,1-1.91,5.31,3.26,3.26,0,0,1-1.49,1,13.68,13.68,0,0,1-3.25.23,21.41,21.41,0,0,1-3.29-.2s0,0,0-.09v-15a.63.63,0,0,1,.25-.1A11.23,11.23,0,0,1,62.06,5.48Zm-2.85,18.3c2.75,0,3.77.06,4.13.11a10.43,10.43,0,0,1,4.47,1.54c3.54,2.39,5.25,5.91,5.25,10.78,0,2.68-.85,4.62-2.61,5.91a7.83,7.83,0,0,1-4.83,1.51,11.4,11.4,0,0,1-4.76-.79,2.06,2.06,0,0,1-1.24-1.15,13.76,13.76,0,0,1-.36-2.77c0-.57,0-4.64,0-12.09Z"/><path class="cls-2" d="M126.25,39.39a1.11,1.11,0,0,0-.63-.93c-.66-.3-1.18.09-2,.73a30.42,30.42,0,0,1-4.08,2.61,17.56,17.56,0,0,1-7.38,1.67,19.16,19.16,0,0,1-14.38-6.06,19.74,19.74,0,0,1-5.51-13.95c0-6.33,1.65-11.12,4.92-14.26,2.75-2.62,7-3.95,12.65-3.95,4.87,0,8.56,1,11,3.08A6.52,6.52,0,0,1,123,13.64c0,1.14.34,1.72,1,1.72s1-.57,1.06-1.71c.07-2.21.13-4.14.17-5.76a19,19,0,0,1,.23-2,8.13,8.13,0,0,0,.17-1.16c0-.25-.09-1.08-1.26-1.17a51.29,51.29,0,0,1-5.73-.83A47,47,0,0,0,110.27,2C102.66,2,96.7,4.1,92.56,8.19a21.54,21.54,0,0,0-5.19,8.35A21.82,21.82,0,0,0,86,23.91c0,7.13,2.36,12.85,7,17,3.82,3.41,8.62,6.54,17.77,6.54l1.2,0c7.73-.22,10.78-2.84,12.42-4.25l.21-.18A5,5,0,0,0,126.25,39.39Z"/><path class="cls-2" d="M139.79,49.36a1.28,1.28,0,0,1-1.28-1.28V1.28a1.28,1.28,0,0,1,2.56,0v46.8A1.28,1.28,0,0,1,139.79,49.36Z"/><path class="cls-1" d="M130.78,79.67c0-4.54,0-5.36-.06-6.29s-.29-1.46-1.25-1.66a5.36,5.36,0,0,0-1-.09c-.12,0-.24-.06-.24-.17s.15-.24.47-.24c1.31,0,3.15.09,3.29.09.7,0,1.84-.09,3.18-.09,4.78,0,5.83,2.92,5.83,4.37,0,2.39-1.37,3.82-2.74,5.25,2.16.67,5,2.74,5,6.15,0,3.12-2.45,6.35-7.43,6.35-.32,0-1.25-.06-2.1-.08s-1.66-.09-1.78-.09-.55,0-1.16,0-1.26.06-1.69.06-.47-.06-.47-.24.06-.17.23-.17a4.34,4.34,0,0,0,.88-.12c.58-.12.73-.76.84-1.6.15-1.23.15-3.53.15-6.33Zm2.33.65a.28.28,0,0,0,.2.32,10.66,10.66,0,0,0,1.78.11c1.63,0,2-.06,2.65-.75a4.49,4.49,0,0,0,1-3c0-2.42-1.08-5-3.93-5a7,7,0,0,0-1.4.14c-.26.06-.35.15-.35.32Zm0,3.08c0,2.25,0,5.86,0,6.3.09,1.43.09,1.84,1,2.27a6.84,6.84,0,0,0,2.56.44,3.88,3.88,0,0,0,4.11-4.14A7,7,0,0,0,138,82.44a4.83,4.83,0,0,0-2.42-.84c-.38-.06-1.84-.06-2.27-.06-.12,0-.18.06-.18.2Z"/><path class="cls-1" d="M159,70.81c6.56,0,11.45,4.14,11.45,10.93,0,6.53-4.6,11.92-11.62,11.92-8,0-11.31-6.2-11.31-11.45C147.48,77.49,150.92,70.81,159,70.81Zm.61,21.75c2.62,0,8.05-1.52,8.05-10,0-7-4.26-10.75-8.86-10.75-4.87,0-8.51,3.2-8.51,9.58C150.25,88.18,154.33,92.56,159.57,92.56Z"/><path class="cls-1" d="M175.6,92.88c-.41-.21-.44-.32-.44-1.11,0-1.46.12-2.62.15-3.09s.09-.47.23-.47.21.09.21.32a5.59,5.59,0,0,0,.08,1.08c.44,2.16,2.36,3,4.32,3a3.89,3.89,0,0,0,4.16-3.87c0-2-.84-3.18-3.35-5.25l-1.31-1.08c-3.09-2.53-3.79-4.34-3.79-6.32,0-3.12,2.33-5.25,6-5.25a11.07,11.07,0,0,1,2.72.3,5,5,0,0,0,1,.14c.24,0,.3.06.3.21s-.12,1.1-.12,3.08c0,.47-.06.67-.2.67s-.21-.14-.24-.37a5,5,0,0,0-.38-1.46c-.17-.32-1-1.55-3.64-1.55a3.31,3.31,0,0,0-3.58,3.38c0,1.67.75,2.72,3.55,4.9l.82.64c3.44,2.71,4.25,4.52,4.25,6.85a6,6,0,0,1-2.47,4.84,7.73,7.73,0,0,1-4.41,1.22A8.84,8.84,0,0,1,175.6,92.88Z"/><path class="cls-1" d="M200.28,84.8c0,2.8,0,5.1.15,6.33.09.84.26,1.48,1.14,1.6a12.2,12.2,0,0,0,1.31.12c.17,0,.23.08.23.17s-.15.24-.47.24c-1.6,0-3.43-.09-3.58-.09s-2,.09-2.86.09c-.32,0-.46-.06-.46-.24s0-.17.23-.17a4.34,4.34,0,0,0,.87-.12c.59-.12.73-.76.85-1.6.14-1.23.14-3.53.14-6.33V72.48l-4.31,0c-1.81,0-2.5.24-3,.94a5.47,5.47,0,0,0-.5.9c-.08.23-.17.29-.29.29s-.14-.09-.14-.26.58-2.8.64-3,.17-.56.29-.56a4.9,4.9,0,0,0,1.28.35c.85.09,1.95.15,2.3.15h10.93a11.23,11.23,0,0,0,2.07-.15c.44,0,.7-.14.82-.14s.14.17.14.35c0,.87-.08,2.88-.08,3.2s-.09.38-.21.38-.2-.08-.23-.49l0-.32c-.09-.88-.79-1.55-3.58-1.61l-3.68,0Z"/><path class="cls-1" d="M221.5,70.81C228.06,70.81,233,75,233,81.74c0,6.53-4.6,11.92-11.63,11.92-8,0-11.3-6.2-11.3-11.45C210,77.49,213.46,70.81,221.5,70.81Zm.61,21.75c2.62,0,8-1.52,8-10,0-7-4.26-10.75-8.87-10.75-4.86,0-8.5,3.2-8.5,9.58C212.79,88.18,216.87,92.56,222.11,92.56Z"/><path class="cls-1" d="M239.92,89.29c.05,2.39.35,3.15,1.13,3.38a6.29,6.29,0,0,0,1.46.18c.15,0,.23.06.23.17s-.17.24-.52.24c-1.66,0-2.83-.09-3.09-.09s-1.49.09-2.8.09c-.29,0-.46,0-.46-.24s.08-.17.23-.17a4,4,0,0,0,1.19-.18c.73-.2.88-1,.88-3.7l0-16.7c0-1.14.08-1.46.32-1.46s.73.65,1,.94c.43.49,4.78,5.18,9.27,10,2.88,3.09,6.06,6.65,7,7.61l-.32-14.81c0-1.89-.23-2.53-1.14-2.76a7.47,7.47,0,0,0-1.42-.15c-.21,0-.24-.09-.24-.2s.24-.21.58-.21c1.32,0,2.71.09,3,.09s1.28-.09,2.47-.09c.32,0,.53,0,.53.21s-.12.2-.32.2a2.49,2.49,0,0,0-.7.09c-1,.2-1.08.84-1.08,2.59l-.06,17.08c0,1.92-.06,2.07-.26,2.07s-.58-.32-2.13-1.87c-.32-.29-4.52-4.57-7.61-7.89-3.38-3.65-6.67-7.32-7.6-8.37Z"/><rect class="cls-1" x="34.24" y="82.49" width="85.21" height="0.85"/><rect class="cls-1" x="268.28" y="82.01" width="85.21" height="0.85"/></g></g></svg>